<svg width="708" height="920" viewBox="0 0 708 920" fill="none" xmlns="http://www.w3.org/2000/svg">
<g filter="url(#filter0_d)">
<rect x="5" y="1" width="698" height="910" rx="8" fill="white"/>
<rect x="4.5" y="0.5" width="699" height="911" rx="8.5" stroke="#BCBCBC"/>
</g>
<rect x="5" y="820" width="698" height="91.1425" rx="8" fill="white"/>
<line x1="109.054" y1="880.262" x2="331.594" y2="880.262" stroke="black" stroke-opacity="0.2"/>
<line x1="109.054" y1="851.4" x2="468.308" y2="851.4" stroke="black" stroke-opacity="0.2"/>
<line x1="99.9399" y1="910.643" x2="608.819" y2="910.643" stroke="black" stroke-opacity="0.2"/>
<rect x="5" y="729" width="698" height="91.1425" rx="8" fill="white"/>
<line x1="109.054" y1="789.262" x2="331.594" y2="789.262" stroke="black" stroke-opacity="0.2"/>
<line x1="109.054" y1="760.4" x2="468.308" y2="760.4" stroke="black" stroke-opacity="0.2"/>
<line x1="99.9399" y1="819.643" x2="608.819" y2="819.643" stroke="black" stroke-opacity="0.2"/>
<rect x="5" y="638" width="698" height="91.1425" rx="8" fill="white"/>
<line x1="109.054" y1="698.262" x2="331.594" y2="698.262" stroke="black" stroke-opacity="0.2"/>
<line x1="109.054" y1="669.4" x2="468.308" y2="669.4" stroke="black" stroke-opacity="0.2"/>
<line x1="99.9399" y1="728.643" x2="608.819" y2="728.643" stroke="black" stroke-opacity="0.2"/>
<rect x="5" y="547" width="698" height="91.1425" rx="8" fill="white"/>
<line x1="109.054" y1="607.262" x2="331.594" y2="607.262" stroke="black" stroke-opacity="0.2"/>
<line x1="109.054" y1="578.4" x2="468.308" y2="578.4" stroke="black" stroke-opacity="0.2"/>
<line x1="99.9399" y1="637.643" x2="608.819" y2="637.643" stroke="black" stroke-opacity="0.2"/>
<rect x="5" y="456" width="698" height="91.1425" fill="white"/>
<line x1="109.054" y1="516.262" x2="331.594" y2="516.262" stroke="black" stroke-opacity="0.2"/>
<line x1="109.054" y1="487.4" x2="468.308" y2="487.4" stroke="black" stroke-opacity="0.2"/>
<line x1="99.9399" y1="546.643" x2="608.819" y2="546.643" stroke="black" stroke-opacity="0.2"/>
<rect x="5" y="365" width="698" height="91.1425" fill="white"/>
<line x1="109.054" y1="425.262" x2="331.594" y2="425.262" stroke="black" stroke-opacity="0.2"/>
<line x1="109.054" y1="396.4" x2="468.308" y2="396.4" stroke="black" stroke-opacity="0.2"/>
<line x1="99.9399" y1="455.643" x2="608.819" y2="455.643" stroke="black" stroke-opacity="0.2"/>
<rect x="5" y="274" width="698" height="91.1425" fill="white"/>
<line x1="109.054" y1="334.262" x2="331.594" y2="334.262" stroke="black" stroke-opacity="0.2"/>
<line x1="109.054" y1="305.4" x2="468.308" y2="305.4" stroke="black" stroke-opacity="0.2"/>
<line x1="99.9399" y1="364.643" x2="608.819" y2="364.643" stroke="black" stroke-opacity="0.2"/>
<rect x="5" y="183" width="698" height="91.1425" rx="8" fill="white"/>
<line x1="109.054" y1="243.262" x2="331.594" y2="243.262" stroke="black" stroke-opacity="0.2"/>
<line x1="109.054" y1="214.4" x2="468.308" y2="214.4" stroke="black" stroke-opacity="0.2"/>
<line x1="99.9399" y1="273.643" x2="608.819" y2="273.643" stroke="black" stroke-opacity="0.2"/>
<rect x="5" y="92" width="698" height="91.1425" rx="8" fill="white"/>
<line x1="109.054" y1="152.262" x2="331.594" y2="152.262" stroke="black" stroke-opacity="0.2"/>
<line x1="109.054" y1="123.4" x2="468.308" y2="123.4" stroke="black" stroke-opacity="0.2"/>
<line x1="99.9399" y1="182.643" x2="608.819" y2="182.643" stroke="black" stroke-opacity="0.2"/>
<rect x="5" y="1" width="698" height="91.1425" rx="8" fill="white"/>
<line x1="109.054" y1="61.2617" x2="331.594" y2="61.2617" stroke="black" stroke-opacity="0.2"/>
<line x1="109.054" y1="32.3999" x2="468.308" y2="32.3999" stroke="black" stroke-opacity="0.2"/>
<line x1="99.9399" y1="91.6425" x2="608.819" y2="91.6425" stroke="black" stroke-opacity="0.2"/>
<rect x="614.136" y="821.519" width="87.3449" height="87.3449" rx="8" fill="#C4C4C4"/>
<rect x="614.136" y="730.519" width="87.3449" height="87.3449" rx="8" fill="#C4C4C4"/>
<rect x="614.136" y="639.519" width="87.3449" height="87.3449" rx="8" fill="#C4C4C4"/>
<rect x="614.136" y="548.519" width="87.3449" height="87.3449" rx="8" fill="#C4C4C4"/>
<rect x="614.136" y="457.519" width="87.3449" height="87.3449" rx="8" fill="#C4C4C4"/>
<rect x="614.136" y="366.519" width="87.3449" height="87.3449" rx="8" fill="#C4C4C4"/>
<rect x="614.136" y="275.519" width="87.3449" height="87.3449" rx="8" fill="#C4C4C4"/>
<rect x="614.136" y="184.519" width="87.3449" height="87.3449" rx="8" fill="#C4C4C4"/>
<rect x="614.136" y="93.519" width="87.3449" height="87.3449" rx="8" fill="#C4C4C4"/>
<rect x="614.136" y="2.51904" width="87.3449" height="87.3449" rx="8" fill="#C4C4C4"/>
<rect x="6.51904" y="821.519" width="87.3449" height="87.3449" rx="8" fill="#5EC2B7"/>
<rect x="6.51904" y="730.519" width="87.3449" height="87.3449" rx="8" fill="#5EC2B7"/>
<rect x="6.51904" y="639.519" width="87.3449" height="87.3449" rx="8" fill="#5EC2B7"/>
<rect x="6.51904" y="548.519" width="87.3449" height="87.3449" rx="8" fill="#5EC2B7"/>
<rect x="6.51904" y="457.519" width="87.3449" height="87.3449" rx="8" fill="#5EC2B7"/>
<rect x="6.51904" y="366.519" width="87.3449" height="87.3449" rx="8" fill="#5EC2B7"/>
<rect x="6.51904" y="275.519" width="87.3449" height="87.3449" rx="8" fill="#5EC2B7"/>
<rect x="6.51904" y="184.519" width="87.3449" height="87.3449" rx="8" fill="#5EC2B7"/>
<rect x="6.51904" y="93.519" width="87.3449" height="87.3449" rx="8" fill="#5EC2B7"/>
<rect x="6.51904" y="2.51904" width="87.3449" height="87.3449" rx="8" fill="#5EC2B7"/>
<defs>
<filter id="filter0_d" x="0" y="0" width="708" height="920" filterUnits="userSpaceOnUse" color-interpolation-filters="sRGB">
<feFlood flood-opacity="0" result="BackgroundImageFix"/>
<feColorMatrix in="SourceAlpha" type="matrix" values="0 0 0 0 0 0 0 0 0 0 0 0 0 0 0 0 0 0 127 0"/>
<feOffset dy="4"/>
<feGaussianBlur stdDeviation="2"/>
<feColorMatrix type="matrix" values="0 0 0 0 0 0 0 0 0 0 0 0 0 0 0 0 0 0 0.25 0"/>
<feBlend mode="normal" in2="BackgroundImageFix" result="effect1_dropShadow"/>
<feBlend mode="normal" in="SourceGraphic" in2="effect1_dropShadow" result="shape"/>
</filter>
</defs>
</svg>
