<svg width="698" height="911" viewBox="0 0 698 911" fill="none" xmlns="http://www.w3.org/2000/svg">
<rect y="819" width="698" height="91.1425" rx="8" fill="white"/>
<line x1="104.054" y1="879.262" x2="326.594" y2="879.262" stroke="black" stroke-opacity="0.2"/>
<line x1="104.054" y1="850.4" x2="463.308" y2="850.4" stroke="black" stroke-opacity="0.2"/>
<line x1="94.9402" y1="909.643" x2="603.819" y2="909.643" stroke="black" stroke-opacity="0.2"/>
<rect y="728" width="698" height="91.1425" rx="8" fill="white"/>
<line x1="104.054" y1="788.262" x2="326.594" y2="788.262" stroke="black" stroke-opacity="0.2"/>
<line x1="104.054" y1="759.4" x2="463.308" y2="759.4" stroke="black" stroke-opacity="0.2"/>
<line x1="94.9402" y1="818.643" x2="603.819" y2="818.643" stroke="black" stroke-opacity="0.2"/>
<rect y="637" width="698" height="91.1425" rx="8" fill="white"/>
<line x1="104.054" y1="697.262" x2="326.594" y2="697.262" stroke="black" stroke-opacity="0.2"/>
<line x1="104.054" y1="668.4" x2="463.308" y2="668.4" stroke="black" stroke-opacity="0.2"/>
<line x1="94.9402" y1="727.643" x2="603.819" y2="727.643" stroke="black" stroke-opacity="0.2"/>
<rect y="546" width="698" height="91.1425" rx="8" fill="white"/>
<line x1="104.054" y1="606.262" x2="326.594" y2="606.262" stroke="black" stroke-opacity="0.2"/>
<line x1="104.054" y1="577.4" x2="463.308" y2="577.4" stroke="black" stroke-opacity="0.2"/>
<line x1="94.9402" y1="636.643" x2="603.819" y2="636.643" stroke="black" stroke-opacity="0.2"/>
<rect y="455" width="698" height="91.1425" fill="white"/>
<line x1="104.054" y1="515.262" x2="326.594" y2="515.262" stroke="black" stroke-opacity="0.2"/>
<line x1="104.054" y1="486.4" x2="463.308" y2="486.4" stroke="black" stroke-opacity="0.2"/>
<line x1="94.9402" y1="545.643" x2="603.819" y2="545.643" stroke="black" stroke-opacity="0.2"/>
<rect y="364" width="698" height="91.1425" fill="white"/>
<line x1="104.054" y1="424.262" x2="326.594" y2="424.262" stroke="black" stroke-opacity="0.2"/>
<line x1="104.054" y1="395.4" x2="463.308" y2="395.4" stroke="black" stroke-opacity="0.2"/>
<line x1="94.9402" y1="454.643" x2="603.819" y2="454.643" stroke="black" stroke-opacity="0.2"/>
<rect y="273" width="698" height="91.1425" fill="white"/>
<line x1="104.054" y1="333.262" x2="326.594" y2="333.262" stroke="black" stroke-opacity="0.2"/>
<line x1="104.054" y1="304.4" x2="463.308" y2="304.4" stroke="black" stroke-opacity="0.2"/>
<line x1="94.9402" y1="363.643" x2="603.819" y2="363.643" stroke="black" stroke-opacity="0.2"/>
<rect y="182" width="698" height="91.1425" rx="8" fill="white"/>
<line x1="104.054" y1="242.262" x2="326.594" y2="242.262" stroke="black" stroke-opacity="0.2"/>
<line x1="104.054" y1="213.4" x2="463.308" y2="213.4" stroke="black" stroke-opacity="0.2"/>
<line x1="94.9402" y1="272.643" x2="603.819" y2="272.643" stroke="black" stroke-opacity="0.2"/>
<rect y="91" width="698" height="91.1425" rx="8" fill="white"/>
<line x1="104.054" y1="151.262" x2="326.594" y2="151.262" stroke="black" stroke-opacity="0.2"/>
<line x1="104.054" y1="122.4" x2="463.308" y2="122.4" stroke="black" stroke-opacity="0.2"/>
<line x1="94.9402" y1="181.643" x2="603.819" y2="181.643" stroke="black" stroke-opacity="0.2"/>
<rect width="698" height="91.1425" rx="8" fill="white"/>
<line x1="104.054" y1="60.2617" x2="326.594" y2="60.2617" stroke="black" stroke-opacity="0.2"/>
<line x1="104.054" y1="31.3999" x2="463.308" y2="31.3999" stroke="black" stroke-opacity="0.2"/>
<line x1="94.9402" y1="90.6425" x2="603.819" y2="90.6425" stroke="black" stroke-opacity="0.2"/>
</svg>
