<svg width="698" height="92" viewBox="0 0 698 92" fill="none" xmlns="http://www.w3.org/2000/svg">
<rect width="698" height="91.1425" fill="white"/>
<line x1="104.054" y1="60.2617" x2="326.594" y2="60.2617" stroke="black" stroke-opacity="0.2"/>
<line x1="104.054" y1="31.3999" x2="463.308" y2="31.3999" stroke="black" stroke-opacity="0.2"/>
<path d="M116.474 16.3788V29.3928H115.232C115.04 29.3928 114.878 29.3628 114.746 29.3028C114.62 29.2368 114.497 29.1288 114.377 28.9788L107.582 20.3028C107.618 20.6988 107.636 21.0648 107.636 21.4008V29.3928H105.503V16.3788H106.772C106.874 16.3788 106.961 16.3848 107.033 16.3968C107.111 16.4028 107.177 16.4208 107.231 16.4508C107.291 16.4748 107.348 16.5138 107.402 16.5678C107.456 16.6158 107.516 16.6818 107.582 16.7658L114.404 25.4778C114.386 25.2678 114.371 25.0608 114.359 24.8568C114.347 24.6528 114.341 24.4638 114.341 24.2898V16.3788H116.474ZM123.671 25.4508C123.029 25.4808 122.489 25.5378 122.051 25.6218C121.613 25.6998 121.262 25.8018 120.998 25.9278C120.734 26.0538 120.545 26.2008 120.431 26.3688C120.317 26.5368 120.26 26.7198 120.26 26.9178C120.26 27.3078 120.374 27.5868 120.602 27.7548C120.836 27.9228 121.139 28.0068 121.511 28.0068C121.967 28.0068 122.36 27.9258 122.69 27.7638C123.026 27.5958 123.353 27.3438 123.671 27.0078V25.4508ZM118.577 21.4458C119.639 20.4738 120.917 19.9878 122.411 19.9878C122.951 19.9878 123.434 20.0778 123.86 20.2578C124.286 20.4318 124.646 20.6778 124.94 20.9958C125.234 21.3078 125.456 21.6828 125.606 22.1208C125.762 22.5588 125.84 23.0388 125.84 23.5608V29.3928H124.832C124.622 29.3928 124.46 29.3628 124.346 29.3028C124.232 29.2368 124.142 29.1078 124.076 28.9158L123.878 28.2498C123.644 28.4598 123.416 28.6458 123.194 28.8078C122.972 28.9638 122.741 29.0958 122.501 29.2038C122.261 29.3118 122.003 29.3928 121.727 29.4468C121.457 29.5068 121.157 29.5368 120.827 29.5368C120.437 29.5368 120.077 29.4858 119.747 29.3838C119.417 29.2758 119.132 29.1168 118.892 28.9068C118.652 28.6968 118.466 28.4358 118.334 28.1238C118.202 27.8118 118.136 27.4488 118.136 27.0348C118.136 26.8008 118.175 26.5698 118.253 26.3418C118.331 26.1078 118.457 25.8858 118.631 25.6758C118.811 25.4658 119.042 25.2678 119.324 25.0818C119.606 24.8958 119.951 24.7338 120.359 24.5958C120.773 24.4578 121.253 24.3468 121.799 24.2628C122.345 24.1728 122.969 24.1188 123.671 24.1008V23.5608C123.671 22.9428 123.539 22.4868 123.275 22.1928C123.011 21.8928 122.63 21.7428 122.132 21.7428C121.772 21.7428 121.472 21.7848 121.232 21.8688C120.998 21.9528 120.791 22.0488 120.611 22.1568C120.431 22.2588 120.266 22.3518 120.116 22.4358C119.972 22.5198 119.81 22.5618 119.63 22.5618C119.474 22.5618 119.342 22.5228 119.234 22.4448C119.126 22.3608 119.039 22.2648 118.973 22.1568L118.577 21.4458ZM127.934 29.3928V20.1588H129.293C129.581 20.1588 129.77 20.2938 129.86 20.5638L130.004 21.2478C130.166 21.0678 130.334 20.9028 130.508 20.7528C130.688 20.6028 130.877 20.4738 131.075 20.3658C131.279 20.2578 131.495 20.1738 131.723 20.1138C131.957 20.0478 132.212 20.0148 132.488 20.0148C133.07 20.0148 133.547 20.1738 133.919 20.4918C134.297 20.8038 134.579 21.2208 134.765 21.7428C134.909 21.4368 135.089 21.1758 135.305 20.9598C135.521 20.7378 135.758 20.5578 136.016 20.4198C136.274 20.2818 136.547 20.1798 136.835 20.1138C137.129 20.0478 137.423 20.0148 137.717 20.0148C138.227 20.0148 138.68 20.0928 139.076 20.2488C139.472 20.4048 139.805 20.6328 140.075 20.9328C140.345 21.2328 140.549 21.5988 140.687 22.0308C140.831 22.4628 140.903 22.9578 140.903 23.5158V29.3928H138.68V23.5158C138.68 22.9278 138.551 22.4868 138.293 22.1928C138.035 21.8928 137.657 21.7428 137.159 21.7428C136.931 21.7428 136.718 21.7818 136.52 21.8598C136.328 21.9378 136.157 22.0518 136.007 22.2018C135.863 22.3458 135.749 22.5288 135.665 22.7508C135.581 22.9728 135.539 23.2278 135.539 23.5158V29.3928H133.307V23.5158C133.307 22.8978 133.181 22.4478 132.929 22.1658C132.683 21.8838 132.32 21.7428 131.84 21.7428C131.516 21.7428 131.213 21.8238 130.931 21.9858C130.655 22.1418 130.397 22.3578 130.157 22.6338V29.3928H127.934ZM148.965 23.7138C148.965 23.4258 148.923 23.1558 148.839 22.9038C148.761 22.6458 148.641 22.4208 148.479 22.2288C148.317 22.0368 148.11 21.8868 147.858 21.7788C147.612 21.6648 147.324 21.6078 146.994 21.6078C146.352 21.6078 145.845 21.7908 145.473 22.1568C145.107 22.5228 144.873 23.0418 144.771 23.7138H148.965ZM144.726 25.0548C144.762 25.5288 144.846 25.9398 144.978 26.2878C145.11 26.6298 145.284 26.9148 145.5 27.1428C145.716 27.3648 145.971 27.5328 146.265 27.6468C146.565 27.7548 146.895 27.8088 147.255 27.8088C147.615 27.8088 147.924 27.7668 148.182 27.6828C148.446 27.5988 148.674 27.5058 148.866 27.4038C149.064 27.3018 149.235 27.2088 149.379 27.1248C149.529 27.0408 149.673 26.9988 149.811 26.9988C149.997 26.9988 150.135 27.0678 150.225 27.2058L150.864 28.0158C150.618 28.3038 150.342 28.5468 150.036 28.7448C149.73 28.9368 149.409 29.0928 149.073 29.2128C148.743 29.3268 148.404 29.4078 148.056 29.4558C147.714 29.5038 147.381 29.5278 147.057 29.5278C146.415 29.5278 145.818 29.4228 145.266 29.2128C144.714 28.9968 144.234 28.6818 143.826 28.2678C143.418 27.8478 143.097 27.3318 142.863 26.7198C142.629 26.1018 142.512 25.3878 142.512 24.5778C142.512 23.9478 142.614 23.3568 142.818 22.8048C143.022 22.2468 143.313 21.7638 143.691 21.3558C144.075 20.9418 144.54 20.6148 145.086 20.3748C145.638 20.1348 146.259 20.0148 146.949 20.0148C147.531 20.0148 148.068 20.1078 148.56 20.2938C149.052 20.4798 149.475 20.7528 149.829 21.1128C150.183 21.4668 150.459 21.9048 150.657 22.4268C150.861 22.9428 150.963 23.5338 150.963 24.1998C150.963 24.5358 150.927 24.7638 150.855 24.8838C150.783 24.9978 150.645 25.0548 150.441 25.0548H144.726ZM161.094 20.0148C161.778 20.0148 162.399 20.1258 162.957 20.3478C163.521 20.5698 164.001 20.8848 164.397 21.2928C164.799 21.7008 165.108 22.1988 165.324 22.7868C165.54 23.3748 165.648 24.0318 165.648 24.7578C165.648 25.4898 165.54 26.1498 165.324 26.7378C165.108 27.3258 164.799 27.8268 164.397 28.2408C164.001 28.6548 163.521 28.9728 162.957 29.1948C162.399 29.4168 161.778 29.5278 161.094 29.5278C160.404 29.5278 159.777 29.4168 159.213 29.1948C158.649 28.9728 158.166 28.6548 157.764 28.2408C157.368 27.8268 157.059 27.3258 156.837 26.7378C156.621 26.1498 156.513 25.4898 156.513 24.7578C156.513 24.0318 156.621 23.3748 156.837 22.7868C157.059 22.1988 157.368 21.7008 157.764 21.2928C158.166 20.8848 158.649 20.5698 159.213 20.3478C159.777 20.1258 160.404 20.0148 161.094 20.0148ZM161.094 27.8178C161.862 27.8178 162.429 27.5598 162.795 27.0438C163.167 26.5278 163.353 25.7718 163.353 24.7758C163.353 23.7798 163.167 23.0208 162.795 22.4988C162.429 21.9768 161.862 21.7158 161.094 21.7158C160.314 21.7158 159.735 21.9798 159.357 22.5078C158.985 23.0298 158.799 23.7858 158.799 24.7758C158.799 25.7658 158.985 26.5218 159.357 27.0438C159.735 27.5598 160.314 27.8178 161.094 27.8178ZM167.763 29.3928V21.8328L166.962 21.7068C166.788 21.6708 166.647 21.6108 166.539 21.5268C166.437 21.4368 166.386 21.3108 166.386 21.1488V20.2398H167.763V19.5558C167.763 19.0278 167.841 18.5538 167.997 18.1338C168.159 17.7138 168.387 17.3568 168.681 17.0628C168.981 16.7688 169.344 16.5438 169.77 16.3878C170.196 16.2318 170.676 16.1538 171.21 16.1538C171.636 16.1538 172.032 16.2108 172.398 16.3248L172.353 17.4408C172.347 17.5248 172.323 17.5938 172.281 17.6478C172.239 17.6958 172.182 17.7348 172.11 17.7648C172.044 17.7888 171.966 17.8068 171.876 17.8188C171.786 17.8248 171.69 17.8278 171.588 17.8278C171.324 17.8278 171.087 17.8578 170.877 17.9178C170.673 17.9718 170.499 18.0708 170.355 18.2148C170.211 18.3528 170.1 18.5388 170.022 18.7728C169.95 19.0008 169.914 19.2858 169.914 19.6278V20.2398H172.317V21.8238H169.986V29.3928H167.763ZM180.687 29.5368C179.883 29.5368 179.265 29.3118 178.833 28.8618C178.407 28.4058 178.194 27.7788 178.194 26.9808V21.8238H177.249C177.129 21.8238 177.027 21.7848 176.943 21.7068C176.859 21.6288 176.817 21.5118 176.817 21.3558V20.4738L178.302 20.2308L178.77 17.7108C178.8 17.5908 178.857 17.4978 178.941 17.4318C179.025 17.3658 179.133 17.3328 179.265 17.3328H180.417V20.2398H182.883V21.8238H180.417V26.8278C180.417 27.1158 180.486 27.3408 180.624 27.5028C180.768 27.6648 180.963 27.7458 181.209 27.7458C181.347 27.7458 181.461 27.7308 181.551 27.7008C181.647 27.6648 181.728 27.6288 181.794 27.5928C181.866 27.5568 181.929 27.5238 181.983 27.4938C182.037 27.4578 182.091 27.4398 182.145 27.4398C182.211 27.4398 182.265 27.4578 182.307 27.4938C182.349 27.5238 182.394 27.5718 182.442 27.6378L183.108 28.7178C182.784 28.9878 182.412 29.1918 181.992 29.3298C181.572 29.4678 181.137 29.5368 180.687 29.5368ZM186.53 21.1488C186.89 20.8128 187.286 20.5398 187.718 20.3298C188.15 20.1198 188.657 20.0148 189.239 20.0148C189.743 20.0148 190.19 20.1018 190.58 20.2758C190.97 20.4438 191.294 20.6838 191.552 20.9958C191.816 21.3018 192.014 21.6708 192.146 22.1028C192.284 22.5288 192.353 22.9998 192.353 23.5158V29.3928H190.13V23.5158C190.13 22.9518 190.001 22.5168 189.743 22.2108C189.485 21.8988 189.092 21.7428 188.564 21.7428C188.18 21.7428 187.82 21.8298 187.484 22.0038C187.148 22.1778 186.83 22.4148 186.53 22.7148V29.3928H184.307V16.0188H186.53V21.1488ZM200.416 23.7138C200.416 23.4258 200.374 23.1558 200.29 22.9038C200.212 22.6458 200.092 22.4208 199.93 22.2288C199.768 22.0368 199.561 21.8868 199.309 21.7788C199.063 21.6648 198.775 21.6078 198.445 21.6078C197.803 21.6078 197.296 21.7908 196.924 22.1568C196.558 22.5228 196.324 23.0418 196.222 23.7138H200.416ZM196.177 25.0548C196.213 25.5288 196.297 25.9398 196.429 26.2878C196.561 26.6298 196.735 26.9148 196.951 27.1428C197.167 27.3648 197.422 27.5328 197.716 27.6468C198.016 27.7548 198.346 27.8088 198.706 27.8088C199.066 27.8088 199.375 27.7668 199.633 27.6828C199.897 27.5988 200.125 27.5058 200.317 27.4038C200.515 27.3018 200.686 27.2088 200.83 27.1248C200.98 27.0408 201.124 26.9988 201.262 26.9988C201.448 26.9988 201.586 27.0678 201.676 27.2058L202.315 28.0158C202.069 28.3038 201.793 28.5468 201.487 28.7448C201.181 28.9368 200.86 29.0928 200.524 29.2128C200.194 29.3268 199.855 29.4078 199.507 29.4558C199.165 29.5038 198.832 29.5278 198.508 29.5278C197.866 29.5278 197.269 29.4228 196.717 29.2128C196.165 28.9968 195.685 28.6818 195.277 28.2678C194.869 27.8478 194.548 27.3318 194.314 26.7198C194.08 26.1018 193.963 25.3878 193.963 24.5778C193.963 23.9478 194.065 23.3568 194.269 22.8048C194.473 22.2468 194.764 21.7638 195.142 21.3558C195.526 20.9418 195.991 20.6148 196.537 20.3748C197.089 20.1348 197.71 20.0148 198.4 20.0148C198.982 20.0148 199.519 20.1078 200.011 20.2938C200.503 20.4798 200.926 20.7528 201.28 21.1128C201.634 21.4668 201.91 21.9048 202.108 22.4268C202.312 22.9428 202.414 23.5338 202.414 24.1998C202.414 24.5358 202.378 24.7638 202.306 24.8838C202.234 24.9978 202.096 25.0548 201.892 25.0548H196.177ZM214.093 21.9588C214.033 22.0548 213.97 22.1238 213.904 22.1658C213.838 22.2018 213.754 22.2198 213.652 22.2198C213.544 22.2198 213.427 22.1898 213.301 22.1298C213.181 22.0698 213.04 22.0038 212.878 21.9318C212.716 21.8538 212.53 21.7848 212.32 21.7248C212.116 21.6648 211.873 21.6348 211.591 21.6348C211.153 21.6348 210.808 21.7278 210.556 21.9138C210.31 22.0998 210.187 22.3428 210.187 22.6428C210.187 22.8408 210.25 23.0088 210.376 23.1468C210.508 23.2788 210.679 23.3958 210.889 23.4978C211.105 23.5998 211.348 23.6928 211.618 23.7768C211.888 23.8548 212.161 23.9418 212.437 24.0378C212.719 24.1338 212.995 24.2448 213.265 24.3708C213.535 24.4908 213.775 24.6468 213.985 24.8388C214.201 25.0248 214.372 25.2498 214.498 25.5138C214.63 25.7778 214.696 26.0958 214.696 26.4678C214.696 26.9118 214.615 27.3228 214.453 27.7008C214.297 28.0728 214.063 28.3968 213.751 28.6728C213.439 28.9428 213.052 29.1558 212.59 29.3118C212.134 29.4618 211.606 29.5368 211.006 29.5368C210.688 29.5368 210.376 29.5068 210.07 29.4468C209.77 29.3928 209.479 29.3148 209.197 29.2128C208.921 29.1108 208.663 28.9908 208.423 28.8528C208.189 28.7148 207.982 28.5648 207.802 28.4028L208.315 27.5568C208.381 27.4548 208.459 27.3768 208.549 27.3228C208.639 27.2688 208.753 27.2418 208.891 27.2418C209.029 27.2418 209.158 27.2808 209.278 27.3588C209.404 27.4368 209.548 27.5208 209.71 27.6108C209.872 27.7008 210.061 27.7848 210.277 27.8628C210.499 27.9408 210.778 27.9798 211.114 27.9798C211.378 27.9798 211.603 27.9498 211.789 27.8898C211.981 27.8238 212.137 27.7398 212.257 27.6378C212.383 27.5358 212.473 27.4188 212.527 27.2868C212.587 27.1488 212.617 27.0078 212.617 26.8638C212.617 26.6478 212.551 26.4708 212.419 26.3328C212.293 26.1948 212.122 26.0748 211.906 25.9728C211.696 25.8708 211.453 25.7808 211.177 25.7028C210.907 25.6188 210.628 25.5288 210.34 25.4328C210.058 25.3368 209.779 25.2258 209.503 25.0998C209.233 24.9678 208.99 24.8028 208.774 24.6048C208.564 24.4068 208.393 24.1638 208.261 23.8758C208.135 23.5878 208.072 23.2398 208.072 22.8318C208.072 22.4538 208.147 22.0938 208.297 21.7518C208.447 21.4098 208.666 21.1128 208.954 20.8608C209.248 20.6028 209.611 20.3988 210.043 20.2488C210.481 20.0928 210.985 20.0148 211.555 20.0148C212.191 20.0148 212.77 20.1198 213.292 20.3298C213.814 20.5398 214.249 20.8158 214.597 21.1578L214.093 21.9588ZM220.455 20.0148C221.139 20.0148 221.76 20.1258 222.318 20.3478C222.882 20.5698 223.362 20.8848 223.758 21.2928C224.16 21.7008 224.469 22.1988 224.685 22.7868C224.901 23.3748 225.009 24.0318 225.009 24.7578C225.009 25.4898 224.901 26.1498 224.685 26.7378C224.469 27.3258 224.16 27.8268 223.758 28.2408C223.362 28.6548 222.882 28.9728 222.318 29.1948C221.76 29.4168 221.139 29.5278 220.455 29.5278C219.765 29.5278 219.138 29.4168 218.574 29.1948C218.01 28.9728 217.527 28.6548 217.125 28.2408C216.729 27.8268 216.42 27.3258 216.198 26.7378C215.982 26.1498 215.874 25.4898 215.874 24.7578C215.874 24.0318 215.982 23.3748 216.198 22.7868C216.42 22.1988 216.729 21.7008 217.125 21.2928C217.527 20.8848 218.01 20.5698 218.574 20.3478C219.138 20.1258 219.765 20.0148 220.455 20.0148ZM220.455 27.8178C221.223 27.8178 221.79 27.5598 222.156 27.0438C222.528 26.5278 222.714 25.7718 222.714 24.7758C222.714 23.7798 222.528 23.0208 222.156 22.4988C221.79 21.9768 221.223 21.7158 220.455 21.7158C219.675 21.7158 219.096 21.9798 218.718 22.5078C218.346 23.0298 218.16 23.7858 218.16 24.7758C218.16 25.7658 218.346 26.5218 218.718 27.0438C219.096 27.5598 219.675 27.8178 220.455 27.8178ZM228.784 21.2928C228.97 21.1068 229.165 20.9358 229.369 20.7798C229.579 20.6178 229.798 20.4828 230.026 20.3748C230.26 20.2608 230.509 20.1738 230.773 20.1138C231.037 20.0478 231.325 20.0148 231.637 20.0148C232.141 20.0148 232.588 20.1018 232.978 20.2758C233.368 20.4438 233.692 20.6838 233.95 20.9958C234.214 21.3018 234.412 21.6708 234.544 22.1028C234.682 22.5288 234.751 22.9998 234.751 23.5158V29.3928H232.528V23.5158C232.528 22.9518 232.399 22.5168 232.141 22.2108C231.883 21.8988 231.49 21.7428 230.962 21.7428C230.578 21.7428 230.218 21.8298 229.882 22.0038C229.546 22.1778 229.228 22.4148 228.928 22.7148V29.3928H226.705V20.1588H228.064C228.352 20.1588 228.541 20.2938 228.631 20.5638L228.784 21.2928ZM240.24 24.5508C240.516 24.5508 240.756 24.5148 240.96 24.4428C241.164 24.3648 241.332 24.2598 241.464 24.1278C241.602 23.9958 241.704 23.8368 241.77 23.6508C241.842 23.4648 241.878 23.2608 241.878 23.0388C241.878 22.5828 241.74 22.2228 241.464 21.9588C241.194 21.6888 240.786 21.5538 240.24 21.5538C239.694 21.5538 239.283 21.6888 239.007 21.9588C238.737 22.2228 238.602 22.5828 238.602 23.0388C238.602 23.2548 238.635 23.4558 238.701 23.6418C238.773 23.8278 238.875 23.9898 239.007 24.1278C239.145 24.2598 239.316 24.3648 239.52 24.4428C239.73 24.5148 239.97 24.5508 240.24 24.5508ZM242.751 29.8068C242.751 29.6268 242.697 29.4798 242.589 29.3658C242.481 29.2518 242.334 29.1648 242.148 29.1048C241.962 29.0388 241.743 28.9908 241.491 28.9608C241.245 28.9308 240.981 28.9098 240.699 28.8978C240.423 28.8798 240.135 28.8648 239.835 28.8528C239.541 28.8408 239.253 28.8168 238.971 28.7808C238.725 28.9188 238.524 29.0808 238.368 29.2668C238.218 29.4528 238.143 29.6688 238.143 29.9148C238.143 30.0768 238.182 30.2268 238.26 30.3648C238.344 30.5088 238.473 30.6318 238.647 30.7338C238.827 30.8358 239.058 30.9138 239.34 30.9678C239.622 31.0278 239.967 31.0578 240.375 31.0578C240.789 31.0578 241.146 31.0248 241.446 30.9588C241.746 30.8988 241.992 30.8118 242.184 30.6978C242.382 30.5898 242.526 30.4578 242.616 30.3018C242.706 30.1518 242.751 29.9868 242.751 29.8068ZM244.965 20.4738V21.3018C244.965 21.5658 244.806 21.7278 244.488 21.7878L243.66 21.9408C243.786 22.2588 243.849 22.6068 243.849 22.9848C243.849 23.4408 243.756 23.8548 243.57 24.2268C243.39 24.5928 243.138 24.9048 242.814 25.1628C242.49 25.4208 242.106 25.6218 241.662 25.7658C241.224 25.9038 240.75 25.9728 240.24 25.9728C240.06 25.9728 239.886 25.9638 239.718 25.9458C239.55 25.9278 239.385 25.9038 239.223 25.8738C238.935 26.0478 238.791 26.2428 238.791 26.4588C238.791 26.6448 238.875 26.7828 239.043 26.8728C239.217 26.9568 239.445 27.0168 239.727 27.0528C240.009 27.0888 240.33 27.1128 240.69 27.1248C241.05 27.1308 241.419 27.1488 241.797 27.1788C242.175 27.2088 242.544 27.2628 242.904 27.3408C243.264 27.4128 243.585 27.5298 243.867 27.6918C244.149 27.8538 244.374 28.0758 244.542 28.3578C244.716 28.6338 244.803 28.9908 244.803 29.4288C244.803 29.8368 244.701 30.2328 244.497 30.6168C244.299 31.0008 244.008 31.3428 243.624 31.6428C243.246 31.9428 242.778 32.1828 242.22 32.3628C241.668 32.5488 241.038 32.6418 240.33 32.6418C239.634 32.6418 239.028 32.5728 238.512 32.4348C237.996 32.3028 237.567 32.1228 237.225 31.8948C236.883 31.6728 236.628 31.4148 236.46 31.1208C236.292 30.8268 236.208 30.5208 236.208 30.2028C236.208 29.7708 236.337 29.4108 236.595 29.1228C236.859 28.8288 237.219 28.5948 237.675 28.4208C237.429 28.2948 237.234 28.1268 237.09 27.9168C236.946 27.7068 236.874 27.4308 236.874 27.0888C236.874 26.9508 236.898 26.8098 236.946 26.6658C237 26.5158 237.075 26.3688 237.171 26.2248C237.273 26.0808 237.399 25.9458 237.549 25.8198C237.699 25.6878 237.876 25.5708 238.08 25.4688C237.612 25.2168 237.243 24.8808 236.973 24.4608C236.709 24.0408 236.577 23.5488 236.577 22.9848C236.577 22.5288 236.667 22.1178 236.847 21.7518C237.033 21.3798 237.288 21.0648 237.612 20.8068C237.942 20.5428 238.329 20.3418 238.773 20.2038C239.223 20.0658 239.712 19.9968 240.24 19.9968C240.636 19.9968 241.008 20.0388 241.356 20.1228C241.704 20.2008 242.022 20.3178 242.31 20.4738H244.965ZM258.996 29.3928H256.854C256.692 29.3928 256.56 29.3508 256.458 29.2668C256.362 29.1828 256.281 29.0868 256.215 28.9788L254.262 25.7658C254.232 25.8678 254.196 25.9638 254.154 26.0538C254.118 26.1438 254.076 26.2278 254.028 26.3058L252.3 28.9788C252.234 29.0808 252.153 29.1768 252.057 29.2668C251.961 29.3508 251.841 29.3928 251.697 29.3928H249.708L252.876 24.6318L249.834 20.1588H251.976C252.138 20.1588 252.258 20.1828 252.336 20.2308C252.414 20.2728 252.483 20.3448 252.543 20.4468L254.478 23.5248C254.544 23.3208 254.637 23.1198 254.757 22.9218L256.314 20.4918C256.446 20.2698 256.617 20.1588 256.827 20.1588H258.87L255.837 24.5328L258.996 29.3928ZM268.544 20.1588L263.513 31.9308C263.447 32.0868 263.36 32.2038 263.252 32.2818C263.15 32.3658 262.991 32.4078 262.775 32.4078H261.119L262.847 28.6998L259.112 20.1588H261.065C261.239 20.1588 261.374 20.2008 261.47 20.2848C261.572 20.3688 261.647 20.4648 261.695 20.5728L263.657 25.3608C263.723 25.5228 263.777 25.6848 263.819 25.8468C263.867 26.0088 263.912 26.1738 263.954 26.3418C264.008 26.1738 264.062 26.0088 264.116 25.8468C264.17 25.6788 264.23 25.5138 264.296 25.3518L266.15 20.5728C266.198 20.4528 266.276 20.3538 266.384 20.2758C266.498 20.1978 266.624 20.1588 266.762 20.1588H268.544ZM276.282 21.0768C276.282 21.2328 276.255 21.3858 276.201 21.5358C276.147 21.6858 276.075 21.8088 275.985 21.9048L271.602 27.6828H276.147V29.3928H269.019V28.4658C269.019 28.3638 269.043 28.2438 269.091 28.1058C269.139 27.9618 269.211 27.8268 269.307 27.7008L273.735 21.8598H269.28V20.1588H276.282V21.0768ZM284.385 22.1118C284.319 22.1958 284.253 22.2618 284.187 22.3098C284.127 22.3578 284.037 22.3818 283.917 22.3818C283.803 22.3818 283.692 22.3488 283.584 22.2828C283.476 22.2108 283.347 22.1328 283.197 22.0488C283.047 21.9588 282.867 21.8808 282.657 21.8148C282.453 21.7428 282.198 21.7068 281.892 21.7068C281.502 21.7068 281.16 21.7788 280.866 21.9228C280.572 22.0608 280.326 22.2618 280.128 22.5258C279.936 22.7898 279.792 23.1108 279.696 23.4888C279.6 23.8608 279.552 24.2838 279.552 24.7578C279.552 25.2498 279.603 25.6878 279.705 26.0718C279.813 26.4558 279.966 26.7798 280.164 27.0438C280.362 27.3018 280.602 27.4998 280.884 27.6378C281.166 27.7698 281.484 27.8358 281.838 27.8358C282.192 27.8358 282.477 27.7938 282.693 27.7098C282.915 27.6198 283.101 27.5238 283.251 27.4218C283.401 27.3138 283.53 27.2178 283.638 27.1338C283.752 27.0438 283.878 26.9988 284.016 26.9988C284.196 26.9988 284.331 27.0678 284.421 27.2058L285.06 28.0158C284.814 28.3038 284.547 28.5468 284.259 28.7448C283.971 28.9368 283.671 29.0928 283.359 29.2128C283.053 29.3268 282.735 29.4078 282.405 29.4558C282.081 29.5038 281.757 29.5278 281.433 29.5278C280.863 29.5278 280.326 29.4228 279.822 29.2128C279.318 28.9968 278.877 28.6848 278.499 28.2768C278.121 27.8688 277.821 27.3708 277.599 26.7828C277.383 26.1888 277.275 25.5138 277.275 24.7578C277.275 24.0798 277.371 23.4528 277.563 22.8768C277.761 22.2948 278.049 21.7938 278.427 21.3738C278.805 20.9478 279.273 20.6148 279.831 20.3748C280.389 20.1348 281.031 20.0148 281.757 20.0148C282.447 20.0148 283.05 20.1258 283.566 20.3478C284.088 20.5698 284.556 20.8878 284.97 21.3018L284.385 22.1118ZM291.331 25.4508C290.689 25.4808 290.149 25.5378 289.711 25.6218C289.273 25.6998 288.922 25.8018 288.658 25.9278C288.394 26.0538 288.205 26.2008 288.091 26.3688C287.977 26.5368 287.92 26.7198 287.92 26.9178C287.92 27.3078 288.034 27.5868 288.262 27.7548C288.496 27.9228 288.799 28.0068 289.171 28.0068C289.627 28.0068 290.02 27.9258 290.35 27.7638C290.686 27.5958 291.013 27.3438 291.331 27.0078V25.4508ZM286.237 21.4458C287.299 20.4738 288.577 19.9878 290.071 19.9878C290.611 19.9878 291.094 20.0778 291.52 20.2578C291.946 20.4318 292.306 20.6778 292.6 20.9958C292.894 21.3078 293.116 21.6828 293.266 22.1208C293.422 22.5588 293.5 23.0388 293.5 23.5608V29.3928H292.492C292.282 29.3928 292.12 29.3628 292.006 29.3028C291.892 29.2368 291.802 29.1078 291.736 28.9158L291.538 28.2498C291.304 28.4598 291.076 28.6458 290.854 28.8078C290.632 28.9638 290.401 29.0958 290.161 29.2038C289.921 29.3118 289.663 29.3928 289.387 29.4468C289.117 29.5068 288.817 29.5368 288.487 29.5368C288.097 29.5368 287.737 29.4858 287.407 29.3838C287.077 29.2758 286.792 29.1168 286.552 28.9068C286.312 28.6968 286.126 28.4358 285.994 28.1238C285.862 27.8118 285.796 27.4488 285.796 27.0348C285.796 26.8008 285.835 26.5698 285.913 26.3418C285.991 26.1078 286.117 25.8858 286.291 25.6758C286.471 25.4658 286.702 25.2678 286.984 25.0818C287.266 24.8958 287.611 24.7338 288.019 24.5958C288.433 24.4578 288.913 24.3468 289.459 24.2628C290.005 24.1728 290.629 24.1188 291.331 24.1008V23.5608C291.331 22.9428 291.199 22.4868 290.935 22.1928C290.671 21.8928 290.29 21.7428 289.792 21.7428C289.432 21.7428 289.132 21.7848 288.892 21.8688C288.658 21.9528 288.451 22.0488 288.271 22.1568C288.091 22.2588 287.926 22.3518 287.776 22.4358C287.632 22.5198 287.47 22.5618 287.29 22.5618C287.134 22.5618 287.002 22.5228 286.894 22.4448C286.786 22.3608 286.699 22.2648 286.633 22.1568L286.237 21.4458ZM301.228 21.9588C301.168 22.0548 301.105 22.1238 301.039 22.1658C300.973 22.2018 300.889 22.2198 300.787 22.2198C300.679 22.2198 300.562 22.1898 300.436 22.1298C300.316 22.0698 300.175 22.0038 300.013 21.9318C299.851 21.8538 299.665 21.7848 299.455 21.7248C299.251 21.6648 299.008 21.6348 298.726 21.6348C298.288 21.6348 297.943 21.7278 297.691 21.9138C297.445 22.0998 297.322 22.3428 297.322 22.6428C297.322 22.8408 297.385 23.0088 297.511 23.1468C297.643 23.2788 297.814 23.3958 298.024 23.4978C298.24 23.5998 298.483 23.6928 298.753 23.7768C299.023 23.8548 299.296 23.9418 299.572 24.0378C299.854 24.1338 300.13 24.2448 300.4 24.3708C300.67 24.4908 300.91 24.6468 301.12 24.8388C301.336 25.0248 301.507 25.2498 301.633 25.5138C301.765 25.7778 301.831 26.0958 301.831 26.4678C301.831 26.9118 301.75 27.3228 301.588 27.7008C301.432 28.0728 301.198 28.3968 300.886 28.6728C300.574 28.9428 300.187 29.1558 299.725 29.3118C299.269 29.4618 298.741 29.5368 298.141 29.5368C297.823 29.5368 297.511 29.5068 297.205 29.4468C296.905 29.3928 296.614 29.3148 296.332 29.2128C296.056 29.1108 295.798 28.9908 295.558 28.8528C295.324 28.7148 295.117 28.5648 294.937 28.4028L295.45 27.5568C295.516 27.4548 295.594 27.3768 295.684 27.3228C295.774 27.2688 295.888 27.2418 296.026 27.2418C296.164 27.2418 296.293 27.2808 296.413 27.3588C296.539 27.4368 296.683 27.5208 296.845 27.6108C297.007 27.7008 297.196 27.7848 297.412 27.8628C297.634 27.9408 297.913 27.9798 298.249 27.9798C298.513 27.9798 298.738 27.9498 298.924 27.8898C299.116 27.8238 299.272 27.7398 299.392 27.6378C299.518 27.5358 299.608 27.4188 299.662 27.2868C299.722 27.1488 299.752 27.0078 299.752 26.8638C299.752 26.6478 299.686 26.4708 299.554 26.3328C299.428 26.1948 299.257 26.0748 299.041 25.9728C298.831 25.8708 298.588 25.7808 298.312 25.7028C298.042 25.6188 297.763 25.5288 297.475 25.4328C297.193 25.3368 296.914 25.2258 296.638 25.0998C296.368 24.9678 296.125 24.8028 295.909 24.6048C295.699 24.4068 295.528 24.1638 295.396 23.8758C295.27 23.5878 295.207 23.2398 295.207 22.8318C295.207 22.4538 295.282 22.0938 295.432 21.7518C295.582 21.4098 295.801 21.1128 296.089 20.8608C296.383 20.6028 296.746 20.3988 297.178 20.2488C297.616 20.0928 298.12 20.0148 298.69 20.0148C299.326 20.0148 299.905 20.1198 300.427 20.3298C300.949 20.5398 301.384 20.8158 301.732 21.1578L301.228 21.9588ZM310.119 22.1118C310.053 22.1958 309.987 22.2618 309.921 22.3098C309.861 22.3578 309.771 22.3818 309.651 22.3818C309.537 22.3818 309.426 22.3488 309.318 22.2828C309.21 22.2108 309.081 22.1328 308.931 22.0488C308.781 21.9588 308.601 21.8808 308.391 21.8148C308.187 21.7428 307.932 21.7068 307.626 21.7068C307.236 21.7068 306.894 21.7788 306.6 21.9228C306.306 22.0608 306.06 22.2618 305.862 22.5258C305.67 22.7898 305.526 23.1108 305.43 23.4888C305.334 23.8608 305.286 24.2838 305.286 24.7578C305.286 25.2498 305.337 25.6878 305.439 26.0718C305.547 26.4558 305.7 26.7798 305.898 27.0438C306.096 27.3018 306.336 27.4998 306.618 27.6378C306.9 27.7698 307.218 27.8358 307.572 27.8358C307.926 27.8358 308.211 27.7938 308.427 27.7098C308.649 27.6198 308.835 27.5238 308.985 27.4218C309.135 27.3138 309.264 27.2178 309.372 27.1338C309.486 27.0438 309.612 26.9988 309.75 26.9988C309.93 26.9988 310.065 27.0678 310.155 27.2058L310.794 28.0158C310.548 28.3038 310.281 28.5468 309.993 28.7448C309.705 28.9368 309.405 29.0928 309.093 29.2128C308.787 29.3268 308.469 29.4078 308.139 29.4558C307.815 29.5038 307.491 29.5278 307.167 29.5278C306.597 29.5278 306.06 29.4228 305.556 29.2128C305.052 28.9968 304.611 28.6848 304.233 28.2768C303.855 27.8688 303.555 27.3708 303.333 26.7828C303.117 26.1888 303.009 25.5138 303.009 24.7578C303.009 24.0798 303.105 23.4528 303.297 22.8768C303.495 22.2948 303.783 21.7938 304.161 21.3738C304.539 20.9478 305.007 20.6148 305.565 20.3748C306.123 20.1348 306.765 20.0148 307.491 20.0148C308.181 20.0148 308.784 20.1258 309.3 20.3478C309.822 20.5698 310.29 20.8878 310.704 21.3018L310.119 22.1118ZM317.066 25.4508C316.424 25.4808 315.884 25.5378 315.446 25.6218C315.008 25.6998 314.657 25.8018 314.393 25.9278C314.129 26.0538 313.94 26.2008 313.826 26.3688C313.712 26.5368 313.655 26.7198 313.655 26.9178C313.655 27.3078 313.769 27.5868 313.997 27.7548C314.231 27.9228 314.534 28.0068 314.906 28.0068C315.362 28.0068 315.755 27.9258 316.085 27.7638C316.421 27.5958 316.748 27.3438 317.066 27.0078V25.4508ZM311.972 21.4458C313.034 20.4738 314.312 19.9878 315.806 19.9878C316.346 19.9878 316.829 20.0778 317.255 20.2578C317.681 20.4318 318.041 20.6778 318.335 20.9958C318.629 21.3078 318.851 21.6828 319.001 22.1208C319.157 22.5588 319.235 23.0388 319.235 23.5608V29.3928H318.227C318.017 29.3928 317.855 29.3628 317.741 29.3028C317.627 29.2368 317.537 29.1078 317.471 28.9158L317.273 28.2498C317.039 28.4598 316.811 28.6458 316.589 28.8078C316.367 28.9638 316.136 29.0958 315.896 29.2038C315.656 29.3118 315.398 29.3928 315.122 29.4468C314.852 29.5068 314.552 29.5368 314.222 29.5368C313.832 29.5368 313.472 29.4858 313.142 29.3838C312.812 29.2758 312.527 29.1168 312.287 28.9068C312.047 28.6968 311.861 28.4358 311.729 28.1238C311.597 27.8118 311.531 27.4488 311.531 27.0348C311.531 26.8008 311.57 26.5698 311.648 26.3418C311.726 26.1078 311.852 25.8858 312.026 25.6758C312.206 25.4658 312.437 25.2678 312.719 25.0818C313.001 24.8958 313.346 24.7338 313.754 24.5958C314.168 24.4578 314.648 24.3468 315.194 24.2628C315.74 24.1728 316.364 24.1188 317.066 24.1008V23.5608C317.066 22.9428 316.934 22.4868 316.67 22.1928C316.406 21.8928 316.025 21.7428 315.527 21.7428C315.167 21.7428 314.867 21.7848 314.627 21.8688C314.393 21.9528 314.186 22.0488 314.006 22.1568C313.826 22.2588 313.661 22.3518 313.511 22.4358C313.367 22.5198 313.205 22.5618 313.025 22.5618C312.869 22.5618 312.737 22.5228 312.629 22.4448C312.521 22.3608 312.434 22.2648 312.368 22.1568L311.972 21.4458ZM327.943 22.1118C327.877 22.1958 327.811 22.2618 327.745 22.3098C327.685 22.3578 327.595 22.3818 327.475 22.3818C327.361 22.3818 327.25 22.3488 327.142 22.2828C327.034 22.2108 326.905 22.1328 326.755 22.0488C326.605 21.9588 326.425 21.8808 326.215 21.8148C326.011 21.7428 325.756 21.7068 325.45 21.7068C325.06 21.7068 324.718 21.7788 324.424 21.9228C324.13 22.0608 323.884 22.2618 323.686 22.5258C323.494 22.7898 323.35 23.1108 323.254 23.4888C323.158 23.8608 323.11 24.2838 323.11 24.7578C323.11 25.2498 323.161 25.6878 323.263 26.0718C323.371 26.4558 323.524 26.7798 323.722 27.0438C323.92 27.3018 324.16 27.4998 324.442 27.6378C324.724 27.7698 325.042 27.8358 325.396 27.8358C325.75 27.8358 326.035 27.7938 326.251 27.7098C326.473 27.6198 326.659 27.5238 326.809 27.4218C326.959 27.3138 327.088 27.2178 327.196 27.1338C327.31 27.0438 327.436 26.9988 327.574 26.9988C327.754 26.9988 327.889 27.0678 327.979 27.2058L328.618 28.0158C328.372 28.3038 328.105 28.5468 327.817 28.7448C327.529 28.9368 327.229 29.0928 326.917 29.2128C326.611 29.3268 326.293 29.4078 325.963 29.4558C325.639 29.5038 325.315 29.5278 324.991 29.5278C324.421 29.5278 323.884 29.4228 323.38 29.2128C322.876 28.9968 322.435 28.6848 322.057 28.2768C321.679 27.8688 321.379 27.3708 321.157 26.7828C320.941 26.1888 320.833 25.5138 320.833 24.7578C320.833 24.0798 320.929 23.4528 321.121 22.8768C321.319 22.2948 321.607 21.7938 321.985 21.3738C322.363 20.9478 322.831 20.6148 323.389 20.3748C323.947 20.1348 324.589 20.0148 325.315 20.0148C326.005 20.0148 326.608 20.1258 327.124 20.3478C327.646 20.5698 328.114 20.8878 328.528 21.3018L327.943 22.1118ZM334.89 25.4508C334.248 25.4808 333.708 25.5378 333.27 25.6218C332.832 25.6998 332.481 25.8018 332.217 25.9278C331.953 26.0538 331.764 26.2008 331.65 26.3688C331.536 26.5368 331.479 26.7198 331.479 26.9178C331.479 27.3078 331.593 27.5868 331.821 27.7548C332.055 27.9228 332.358 28.0068 332.73 28.0068C333.186 28.0068 333.579 27.9258 333.909 27.7638C334.245 27.5958 334.572 27.3438 334.89 27.0078V25.4508ZM329.796 21.4458C330.858 20.4738 332.136 19.9878 333.63 19.9878C334.17 19.9878 334.653 20.0778 335.079 20.2578C335.505 20.4318 335.865 20.6778 336.159 20.9958C336.453 21.3078 336.675 21.6828 336.825 22.1208C336.981 22.5588 337.059 23.0388 337.059 23.5608V29.3928H336.051C335.841 29.3928 335.679 29.3628 335.565 29.3028C335.451 29.2368 335.361 29.1078 335.295 28.9158L335.097 28.2498C334.863 28.4598 334.635 28.6458 334.413 28.8078C334.191 28.9638 333.96 29.0958 333.72 29.2038C333.48 29.3118 333.222 29.3928 332.946 29.4468C332.676 29.5068 332.376 29.5368 332.046 29.5368C331.656 29.5368 331.296 29.4858 330.966 29.3838C330.636 29.2758 330.351 29.1168 330.111 28.9068C329.871 28.6968 329.685 28.4358 329.553 28.1238C329.421 27.8118 329.355 27.4488 329.355 27.0348C329.355 26.8008 329.394 26.5698 329.472 26.3418C329.55 26.1078 329.676 25.8858 329.85 25.6758C330.03 25.4658 330.261 25.2678 330.543 25.0818C330.825 24.8958 331.17 24.7338 331.578 24.5958C331.992 24.4578 332.472 24.3468 333.018 24.2628C333.564 24.1728 334.188 24.1188 334.89 24.1008V23.5608C334.89 22.9428 334.758 22.4868 334.494 22.1928C334.23 21.8928 333.849 21.7428 333.351 21.7428C332.991 21.7428 332.691 21.7848 332.451 21.8688C332.217 21.9528 332.01 22.0488 331.83 22.1568C331.65 22.2588 331.485 22.3518 331.335 22.4358C331.191 22.5198 331.029 22.5618 330.849 22.5618C330.693 22.5618 330.561 22.5228 330.453 22.4448C330.345 22.3608 330.258 22.2648 330.192 22.1568L329.796 21.4458ZM348.407 25.4508C347.765 25.4808 347.225 25.5378 346.787 25.6218C346.349 25.6998 345.998 25.8018 345.734 25.9278C345.47 26.0538 345.281 26.2008 345.167 26.3688C345.053 26.5368 344.996 26.7198 344.996 26.9178C344.996 27.3078 345.11 27.5868 345.338 27.7548C345.572 27.9228 345.875 28.0068 346.247 28.0068C346.703 28.0068 347.096 27.9258 347.426 27.7638C347.762 27.5958 348.089 27.3438 348.407 27.0078V25.4508ZM343.313 21.4458C344.375 20.4738 345.653 19.9878 347.147 19.9878C347.687 19.9878 348.17 20.0778 348.596 20.2578C349.022 20.4318 349.382 20.6778 349.676 20.9958C349.97 21.3078 350.192 21.6828 350.342 22.1208C350.498 22.5588 350.576 23.0388 350.576 23.5608V29.3928H349.568C349.358 29.3928 349.196 29.3628 349.082 29.3028C348.968 29.2368 348.878 29.1078 348.812 28.9158L348.614 28.2498C348.38 28.4598 348.152 28.6458 347.93 28.8078C347.708 28.9638 347.477 29.0958 347.237 29.2038C346.997 29.3118 346.739 29.3928 346.463 29.4468C346.193 29.5068 345.893 29.5368 345.563 29.5368C345.173 29.5368 344.813 29.4858 344.483 29.3838C344.153 29.2758 343.868 29.1168 343.628 28.9068C343.388 28.6968 343.202 28.4358 343.07 28.1238C342.938 27.8118 342.872 27.4488 342.872 27.0348C342.872 26.8008 342.911 26.5698 342.989 26.3418C343.067 26.1078 343.193 25.8858 343.367 25.6758C343.547 25.4658 343.778 25.2678 344.06 25.0818C344.342 24.8958 344.687 24.7338 345.095 24.5958C345.509 24.4578 345.989 24.3468 346.535 24.2628C347.081 24.1728 347.705 24.1188 348.407 24.1008V23.5608C348.407 22.9428 348.275 22.4868 348.011 22.1928C347.747 21.8928 347.366 21.7428 346.868 21.7428C346.508 21.7428 346.208 21.7848 345.968 21.8688C345.734 21.9528 345.527 22.0488 345.347 22.1568C345.167 22.2588 345.002 22.3518 344.852 22.4358C344.708 22.5198 344.546 22.5618 344.366 22.5618C344.21 22.5618 344.078 22.5228 343.97 22.4448C343.862 22.3608 343.775 22.2648 343.709 22.1568L343.313 21.4458ZM360.784 20.1588L357.121 29.3928H355.105L351.442 20.1588H353.278C353.446 20.1588 353.584 20.1978 353.692 20.2758C353.806 20.3538 353.881 20.4528 353.917 20.5728L355.699 25.5048C355.795 25.7928 355.879 26.0748 355.951 26.3508C356.023 26.6268 356.086 26.9028 356.14 27.1788C356.2 26.9028 356.266 26.6268 356.338 26.3508C356.41 26.0748 356.497 25.7928 356.599 25.5048L358.417 20.5728C358.459 20.4528 358.534 20.3538 358.642 20.2758C358.75 20.1978 358.879 20.1588 359.029 20.1588H360.784ZM367.637 23.7138C367.637 23.4258 367.595 23.1558 367.511 22.9038C367.433 22.6458 367.313 22.4208 367.151 22.2288C366.989 22.0368 366.782 21.8868 366.53 21.7788C366.284 21.6648 365.996 21.6078 365.666 21.6078C365.024 21.6078 364.517 21.7908 364.145 22.1568C363.779 22.5228 363.545 23.0418 363.443 23.7138H367.637ZM363.398 25.0548C363.434 25.5288 363.518 25.9398 363.65 26.2878C363.782 26.6298 363.956 26.9148 364.172 27.1428C364.388 27.3648 364.643 27.5328 364.937 27.6468C365.237 27.7548 365.567 27.8088 365.927 27.8088C366.287 27.8088 366.596 27.7668 366.854 27.6828C367.118 27.5988 367.346 27.5058 367.538 27.4038C367.736 27.3018 367.907 27.2088 368.051 27.1248C368.201 27.0408 368.345 26.9988 368.483 26.9988C368.669 26.9988 368.807 27.0678 368.897 27.2058L369.536 28.0158C369.29 28.3038 369.014 28.5468 368.708 28.7448C368.402 28.9368 368.081 29.0928 367.745 29.2128C367.415 29.3268 367.076 29.4078 366.728 29.4558C366.386 29.5038 366.053 29.5278 365.729 29.5278C365.087 29.5278 364.49 29.4228 363.938 29.2128C363.386 28.9968 362.906 28.6818 362.498 28.2678C362.09 27.8478 361.769 27.3318 361.535 26.7198C361.301 26.1018 361.184 25.3878 361.184 24.5778C361.184 23.9478 361.286 23.3568 361.49 22.8048C361.694 22.2468 361.985 21.7638 362.363 21.3558C362.747 20.9418 363.212 20.6148 363.758 20.3748C364.31 20.1348 364.931 20.0148 365.621 20.0148C366.203 20.0148 366.74 20.1078 367.232 20.2938C367.724 20.4798 368.147 20.7528 368.501 21.1128C368.855 21.4668 369.131 21.9048 369.329 22.4268C369.533 22.9428 369.635 23.5338 369.635 24.1998C369.635 24.5358 369.599 24.7638 369.527 24.8838C369.455 24.9978 369.317 25.0548 369.113 25.0548H363.398ZM371.81 29.3928V21.8328L371.009 21.7068C370.835 21.6708 370.694 21.6108 370.586 21.5268C370.484 21.4368 370.433 21.3108 370.433 21.1488V20.2398H371.81V19.5558C371.81 19.0278 371.888 18.5538 372.044 18.1338C372.206 17.7138 372.434 17.3568 372.728 17.0628C373.028 16.7688 373.391 16.5438 373.817 16.3878C374.243 16.2318 374.723 16.1538 375.257 16.1538C375.683 16.1538 376.079 16.2108 376.445 16.3248L376.4 17.4408C376.394 17.5248 376.37 17.5938 376.328 17.6478C376.286 17.6958 376.229 17.7348 376.157 17.7648C376.091 17.7888 376.013 17.8068 375.923 17.8188C375.833 17.8248 375.737 17.8278 375.635 17.8278C375.371 17.8278 375.134 17.8578 374.924 17.9178C374.72 17.9718 374.546 18.0708 374.402 18.2148C374.258 18.3528 374.147 18.5388 374.069 18.7728C373.997 19.0008 373.961 19.2858 373.961 19.6278V20.2398H376.364V21.8238H374.033V29.3928H371.81ZM385.938 20.1588L382.275 29.3928H380.259L376.596 20.1588H378.432C378.6 20.1588 378.738 20.1978 378.846 20.2758C378.96 20.3538 379.035 20.4528 379.071 20.5728L380.853 25.5048C380.949 25.7928 381.033 26.0748 381.105 26.3508C381.177 26.6268 381.24 26.9028 381.294 27.1788C381.354 26.9028 381.42 26.6268 381.492 26.3508C381.564 26.0748 381.651 25.7928 381.753 25.5048L383.571 20.5728C383.613 20.4528 383.688 20.3538 383.796 20.2758C383.904 20.1978 384.033 20.1588 384.183 20.1588H385.938ZM391.773 25.4508C391.131 25.4808 390.591 25.5378 390.153 25.6218C389.715 25.6998 389.364 25.8018 389.1 25.9278C388.836 26.0538 388.647 26.2008 388.533 26.3688C388.419 26.5368 388.362 26.7198 388.362 26.9178C388.362 27.3078 388.476 27.5868 388.704 27.7548C388.938 27.9228 389.241 28.0068 389.613 28.0068C390.069 28.0068 390.462 27.9258 390.792 27.7638C391.128 27.5958 391.455 27.3438 391.773 27.0078V25.4508ZM386.679 21.4458C387.741 20.4738 389.019 19.9878 390.513 19.9878C391.053 19.9878 391.536 20.0778 391.962 20.2578C392.388 20.4318 392.748 20.6778 393.042 20.9958C393.336 21.3078 393.558 21.6828 393.708 22.1208C393.864 22.5588 393.942 23.0388 393.942 23.5608V29.3928H392.934C392.724 29.3928 392.562 29.3628 392.448 29.3028C392.334 29.2368 392.244 29.1078 392.178 28.9158L391.98 28.2498C391.746 28.4598 391.518 28.6458 391.296 28.8078C391.074 28.9638 390.843 29.0958 390.603 29.2038C390.363 29.3118 390.105 29.3928 389.829 29.4468C389.559 29.5068 389.259 29.5368 388.929 29.5368C388.539 29.5368 388.179 29.4858 387.849 29.3838C387.519 29.2758 387.234 29.1168 386.994 28.9068C386.754 28.6968 386.568 28.4358 386.436 28.1238C386.304 27.8118 386.238 27.4488 386.238 27.0348C386.238 26.8008 386.277 26.5698 386.355 26.3418C386.433 26.1078 386.559 25.8858 386.733 25.6758C386.913 25.4658 387.144 25.2678 387.426 25.0818C387.708 24.8958 388.053 24.7338 388.461 24.5958C388.875 24.4578 389.355 24.3468 389.901 24.2628C390.447 24.1728 391.071 24.1188 391.773 24.1008V23.5608C391.773 22.9428 391.641 22.4868 391.377 22.1928C391.113 21.8928 390.732 21.7428 390.234 21.7428C389.874 21.7428 389.574 21.7848 389.334 21.8688C389.1 21.9528 388.893 22.0488 388.713 22.1568C388.533 22.2588 388.368 22.3518 388.218 22.4358C388.074 22.5198 387.912 22.5618 387.732 22.5618C387.576 22.5618 387.444 22.5228 387.336 22.4448C387.228 22.3608 387.141 22.2648 387.075 22.1568L386.679 21.4458Z" fill="black"/>
<path d="M112.379 53.3406L110.795 49.0116C110.717 48.8196 110.636 48.5916 110.552 48.3276C110.468 48.0636 110.384 47.7786 110.3 47.4726C110.222 47.7786 110.141 48.0666 110.057 48.3366C109.973 48.6006 109.892 48.8316 109.814 49.0296L108.239 53.3406H112.379ZM116.654 58.2546H114.782C114.572 58.2546 114.401 58.2036 114.269 58.1016C114.137 57.9936 114.038 57.8616 113.972 57.7056L113 55.0506H107.609L106.637 57.7056C106.589 57.8436 106.496 57.9696 106.358 58.0836C106.22 58.1976 106.049 58.2546 105.845 58.2546H103.955L109.076 45.2406H111.542L116.654 58.2546ZM119.73 50.6226C120.018 50.0706 120.36 49.6386 120.756 49.3266C121.152 49.0086 121.62 48.8496 122.16 48.8496C122.586 48.8496 122.928 48.9426 123.186 49.1286L123.042 50.7936C123.012 50.9016 122.967 50.9796 122.907 51.0276C122.853 51.0696 122.778 51.0906 122.682 51.0906C122.592 51.0906 122.457 51.0756 122.277 51.0456C122.103 51.0156 121.932 51.0006 121.764 51.0006C121.518 51.0006 121.299 51.0366 121.107 51.1086C120.915 51.1806 120.741 51.2856 120.585 51.4236C120.435 51.5556 120.3 51.7176 120.18 51.9096C120.066 52.1016 119.958 52.3206 119.856 52.5666V58.2546H117.633V49.0206H118.938C119.166 49.0206 119.325 49.0626 119.415 49.1466C119.505 49.2246 119.565 49.3686 119.595 49.5786L119.73 50.6226ZM133.663 58.2546H131.44V50.6856H127.156V55.6896C127.156 55.9776 127.225 56.2026 127.363 56.3646C127.507 56.5266 127.702 56.6076 127.948 56.6076C128.086 56.6076 128.2 56.5926 128.29 56.5626C128.386 56.5266 128.467 56.4906 128.533 56.4546C128.605 56.4186 128.668 56.3856 128.722 56.3556C128.776 56.3196 128.83 56.3016 128.884 56.3016C128.95 56.3016 129.004 56.3196 129.046 56.3556C129.088 56.3856 129.133 56.4336 129.181 56.4996L129.847 57.5796C129.523 57.8496 129.151 58.0536 128.731 58.1916C128.311 58.3296 127.876 58.3986 127.426 58.3986C126.622 58.3986 126.004 58.1736 125.572 57.7236C125.146 57.2676 124.933 56.6406 124.933 55.8426V50.6856H123.988C123.868 50.6856 123.766 50.6466 123.682 50.5686C123.598 50.4906 123.556 50.3736 123.556 50.2176V49.3356L125.041 49.0836L125.509 46.5726C125.539 46.4526 125.596 46.3596 125.68 46.2936C125.764 46.2276 125.872 46.1946 126.004 46.1946H127.156V49.1016H133.663V58.2546ZM134.05 46.2936C134.05 46.4856 134.011 46.6686 133.933 46.8426C133.855 47.0106 133.75 47.1576 133.618 47.2836C133.492 47.4096 133.339 47.5116 133.159 47.5896C132.985 47.6616 132.799 47.6976 132.601 47.6976C132.409 47.6976 132.229 47.6616 132.061 47.5896C131.893 47.5116 131.746 47.4096 131.62 47.2836C131.494 47.1576 131.392 47.0106 131.314 46.8426C131.242 46.6686 131.206 46.4856 131.206 46.2936C131.206 46.0956 131.242 45.9126 131.314 45.7446C131.392 45.5706 131.494 45.4206 131.62 45.2946C131.746 45.1626 131.893 45.0606 132.061 44.9886C132.229 44.9106 132.409 44.8716 132.601 44.8716C132.799 44.8716 132.985 44.9106 133.159 44.9886C133.339 45.0606 133.492 45.1626 133.618 45.2946C133.75 45.4206 133.855 45.5706 133.933 45.7446C134.011 45.9126 134.05 46.0956 134.05 46.2936ZM141.566 50.8206C141.506 50.9166 141.443 50.9856 141.377 51.0276C141.311 51.0636 141.227 51.0816 141.125 51.0816C141.017 51.0816 140.9 51.0516 140.774 50.9916C140.654 50.9316 140.513 50.8656 140.351 50.7936C140.189 50.7156 140.003 50.6466 139.793 50.5866C139.589 50.5266 139.346 50.4966 139.064 50.4966C138.626 50.4966 138.281 50.5896 138.029 50.7756C137.783 50.9616 137.66 51.2046 137.66 51.5046C137.66 51.7026 137.723 51.8706 137.849 52.0086C137.981 52.1406 138.152 52.2576 138.362 52.3596C138.578 52.4616 138.821 52.5546 139.091 52.6386C139.361 52.7166 139.634 52.8036 139.91 52.8996C140.192 52.9956 140.468 53.1066 140.738 53.2326C141.008 53.3526 141.248 53.5086 141.458 53.7006C141.674 53.8866 141.845 54.1116 141.971 54.3756C142.103 54.6396 142.169 54.9576 142.169 55.3296C142.169 55.7736 142.088 56.1846 141.926 56.5626C141.77 56.9346 141.536 57.2586 141.224 57.5346C140.912 57.8046 140.525 58.0176 140.063 58.1736C139.607 58.3236 139.079 58.3986 138.479 58.3986C138.161 58.3986 137.849 58.3686 137.543 58.3086C137.243 58.2546 136.952 58.1766 136.67 58.0746C136.394 57.9726 136.136 57.8526 135.896 57.7146C135.662 57.5766 135.455 57.4266 135.275 57.2646L135.788 56.4186C135.854 56.3166 135.932 56.2386 136.022 56.1846C136.112 56.1306 136.226 56.1036 136.364 56.1036C136.502 56.1036 136.631 56.1426 136.751 56.2206C136.877 56.2986 137.021 56.3826 137.183 56.4726C137.345 56.5626 137.534 56.6466 137.75 56.7246C137.972 56.8026 138.251 56.8416 138.587 56.8416C138.851 56.8416 139.076 56.8116 139.262 56.7516C139.454 56.6856 139.61 56.6016 139.73 56.4996C139.856 56.3976 139.946 56.2806 140 56.1486C140.06 56.0106 140.09 55.8696 140.09 55.7256C140.09 55.5096 140.024 55.3326 139.892 55.1946C139.766 55.0566 139.595 54.9366 139.379 54.8346C139.169 54.7326 138.926 54.6426 138.65 54.5646C138.38 54.4806 138.101 54.3906 137.813 54.2946C137.531 54.1986 137.252 54.0876 136.976 53.9616C136.706 53.8296 136.463 53.6646 136.247 53.4666C136.037 53.2686 135.866 53.0256 135.734 52.7376C135.608 52.4496 135.545 52.1016 135.545 51.6936C135.545 51.3156 135.62 50.9556 135.77 50.6136C135.92 50.2716 136.139 49.9746 136.427 49.7226C136.721 49.4646 137.084 49.2606 137.516 49.1106C137.954 48.9546 138.458 48.8766 139.028 48.8766C139.664 48.8766 140.243 48.9816 140.765 49.1916C141.287 49.4016 141.722 49.6776 142.07 50.0196L141.566 50.8206ZM146.92 58.3986C146.116 58.3986 145.498 58.1736 145.066 57.7236C144.64 57.2676 144.427 56.6406 144.427 55.8426V50.6856H143.482C143.362 50.6856 143.26 50.6466 143.176 50.5686C143.092 50.4906 143.05 50.3736 143.05 50.2176V49.3356L144.535 49.0926L145.003 46.5726C145.033 46.4526 145.09 46.3596 145.174 46.2936C145.258 46.2276 145.366 46.1946 145.498 46.1946H146.65V49.1016H149.116V50.6856H146.65V55.6896C146.65 55.9776 146.719 56.2026 146.857 56.3646C147.001 56.5266 147.196 56.6076 147.442 56.6076C147.58 56.6076 147.694 56.5926 147.784 56.5626C147.88 56.5266 147.961 56.4906 148.027 56.4546C148.099 56.4186 148.162 56.3856 148.216 56.3556C148.27 56.3196 148.324 56.3016 148.378 56.3016C148.444 56.3016 148.498 56.3196 148.54 56.3556C148.582 56.3856 148.627 56.4336 148.675 56.4996L149.341 57.5796C149.017 57.8496 148.645 58.0536 148.225 58.1916C147.805 58.3296 147.37 58.3986 146.92 58.3986ZM156.995 50.1546C157.181 49.9686 157.376 49.7976 157.58 49.6416C157.79 49.4796 158.009 49.3446 158.237 49.2366C158.471 49.1226 158.72 49.0356 158.984 48.9756C159.248 48.9096 159.536 48.8766 159.848 48.8766C160.352 48.8766 160.799 48.9636 161.189 49.1376C161.579 49.3056 161.903 49.5456 162.161 49.8576C162.425 50.1636 162.623 50.5326 162.755 50.9646C162.893 51.3906 162.962 51.8616 162.962 52.3776V58.2546H160.739V52.3776C160.739 51.8136 160.61 51.3786 160.352 51.0726C160.094 50.7606 159.701 50.6046 159.173 50.6046C158.789 50.6046 158.429 50.6916 158.093 50.8656C157.757 51.0396 157.439 51.2766 157.139 51.5766V58.2546H154.916V49.0206H156.275C156.563 49.0206 156.752 49.1556 156.842 49.4256L156.995 50.1546ZM169.954 54.3126C169.312 54.3426 168.772 54.3996 168.334 54.4836C167.896 54.5616 167.545 54.6636 167.281 54.7896C167.017 54.9156 166.828 55.0626 166.714 55.2306C166.6 55.3986 166.543 55.5816 166.543 55.7796C166.543 56.1696 166.657 56.4486 166.885 56.6166C167.119 56.7846 167.422 56.8686 167.794 56.8686C168.25 56.8686 168.643 56.7876 168.973 56.6256C169.309 56.4576 169.636 56.2056 169.954 55.8696V54.3126ZM164.86 50.3076C165.922 49.3356 167.2 48.8496 168.694 48.8496C169.234 48.8496 169.717 48.9396 170.143 49.1196C170.569 49.2936 170.929 49.5396 171.223 49.8576C171.517 50.1696 171.739 50.5446 171.889 50.9826C172.045 51.4206 172.123 51.9006 172.123 52.4226V58.2546H171.115C170.905 58.2546 170.743 58.2246 170.629 58.1646C170.515 58.0986 170.425 57.9696 170.359 57.7776L170.161 57.1116C169.927 57.3216 169.699 57.5076 169.477 57.6696C169.255 57.8256 169.024 57.9576 168.784 58.0656C168.544 58.1736 168.286 58.2546 168.01 58.3086C167.74 58.3686 167.44 58.3986 167.11 58.3986C166.72 58.3986 166.36 58.3476 166.03 58.2456C165.7 58.1376 165.415 57.9786 165.175 57.7686C164.935 57.5586 164.749 57.2976 164.617 56.9856C164.485 56.6736 164.419 56.3106 164.419 55.8966C164.419 55.6626 164.458 55.4316 164.536 55.2036C164.614 54.9696 164.74 54.7476 164.914 54.5376C165.094 54.3276 165.325 54.1296 165.607 53.9436C165.889 53.7576 166.234 53.5956 166.642 53.4576C167.056 53.3196 167.536 53.2086 168.082 53.1246C168.628 53.0346 169.252 52.9806 169.954 52.9626V52.4226C169.954 51.8046 169.822 51.3486 169.558 51.0546C169.294 50.7546 168.913 50.6046 168.415 50.6046C168.055 50.6046 167.755 50.6466 167.515 50.7306C167.281 50.8146 167.074 50.9106 166.894 51.0186C166.714 51.1206 166.549 51.2136 166.399 51.2976C166.255 51.3816 166.093 51.4236 165.913 51.4236C165.757 51.4236 165.625 51.3846 165.517 51.3066C165.409 51.2226 165.322 51.1266 165.256 51.0186L164.86 50.3076ZM174.217 58.2546V49.0206H175.576C175.864 49.0206 176.053 49.1556 176.143 49.4256L176.287 50.1096C176.449 49.9296 176.617 49.7646 176.791 49.6146C176.971 49.4646 177.16 49.3356 177.358 49.2276C177.562 49.1196 177.778 49.0356 178.006 48.9756C178.24 48.9096 178.495 48.8766 178.771 48.8766C179.353 48.8766 179.83 49.0356 180.202 49.3536C180.58 49.6656 180.862 50.0826 181.048 50.6046C181.192 50.2986 181.372 50.0376 181.588 49.8216C181.804 49.5996 182.041 49.4196 182.299 49.2816C182.557 49.1436 182.83 49.0416 183.118 48.9756C183.412 48.9096 183.706 48.8766 184 48.8766C184.51 48.8766 184.963 48.9546 185.359 49.1106C185.755 49.2666 186.088 49.4946 186.358 49.7946C186.628 50.0946 186.832 50.4606 186.97 50.8926C187.114 51.3246 187.186 51.8196 187.186 52.3776V58.2546H184.963V52.3776C184.963 51.7896 184.834 51.3486 184.576 51.0546C184.318 50.7546 183.94 50.6046 183.442 50.6046C183.214 50.6046 183.001 50.6436 182.803 50.7216C182.611 50.7996 182.44 50.9136 182.29 51.0636C182.146 51.2076 182.032 51.3906 181.948 51.6126C181.864 51.8346 181.822 52.0896 181.822 52.3776V58.2546H179.59V52.3776C179.59 51.7596 179.464 51.3096 179.212 51.0276C178.966 50.7456 178.603 50.6046 178.123 50.6046C177.799 50.6046 177.496 50.6856 177.214 50.8476C176.938 51.0036 176.68 51.2196 176.44 51.4956V58.2546H174.217ZM195.248 52.5756C195.248 52.2876 195.206 52.0176 195.122 51.7656C195.044 51.5076 194.924 51.2826 194.762 51.0906C194.6 50.8986 194.393 50.7486 194.141 50.6406C193.895 50.5266 193.607 50.4696 193.277 50.4696C192.635 50.4696 192.128 50.6526 191.756 51.0186C191.39 51.3846 191.156 51.9036 191.054 52.5756H195.248ZM191.009 53.9166C191.045 54.3906 191.129 54.8016 191.261 55.1496C191.393 55.4916 191.567 55.7766 191.783 56.0046C191.999 56.2266 192.254 56.3946 192.548 56.5086C192.848 56.6166 193.178 56.6706 193.538 56.6706C193.898 56.6706 194.207 56.6286 194.465 56.5446C194.729 56.4606 194.957 56.3676 195.149 56.2656C195.347 56.1636 195.518 56.0706 195.662 55.9866C195.812 55.9026 195.956 55.8606 196.094 55.8606C196.28 55.8606 196.418 55.9296 196.508 56.0676L197.147 56.8776C196.901 57.1656 196.625 57.4086 196.319 57.6066C196.013 57.7986 195.692 57.9546 195.356 58.0746C195.026 58.1886 194.687 58.2696 194.339 58.3176C193.997 58.3656 193.664 58.3896 193.34 58.3896C192.698 58.3896 192.101 58.2846 191.549 58.0746C190.997 57.8586 190.517 57.5436 190.109 57.1296C189.701 56.7096 189.38 56.1936 189.146 55.5816C188.912 54.9636 188.795 54.2496 188.795 53.4396C188.795 52.8096 188.897 52.2186 189.101 51.6666C189.305 51.1086 189.596 50.6256 189.974 50.2176C190.358 49.8036 190.823 49.4766 191.369 49.2366C191.921 48.9966 192.542 48.8766 193.232 48.8766C193.814 48.8766 194.351 48.9696 194.843 49.1556C195.335 49.3416 195.758 49.6146 196.112 49.9746C196.466 50.3286 196.742 50.7666 196.94 51.2886C197.144 51.8046 197.246 52.3956 197.246 53.0616C197.246 53.3976 197.21 53.6256 197.138 53.7456C197.066 53.8596 196.928 53.9166 196.724 53.9166H191.009ZM211.177 49.0206L207.514 58.2546H205.498L201.835 49.0206H203.671C203.839 49.0206 203.977 49.0596 204.085 49.1376C204.199 49.2156 204.274 49.3146 204.31 49.4346L206.092 54.3666C206.188 54.6546 206.272 54.9366 206.344 55.2126C206.416 55.4886 206.479 55.7646 206.533 56.0406C206.593 55.7646 206.659 55.4886 206.731 55.2126C206.803 54.9366 206.89 54.6546 206.992 54.3666L208.81 49.4346C208.852 49.3146 208.927 49.2156 209.035 49.1376C209.143 49.0596 209.272 49.0206 209.422 49.0206H211.177ZM217.011 54.3126C216.369 54.3426 215.829 54.3996 215.391 54.4836C214.953 54.5616 214.602 54.6636 214.338 54.7896C214.074 54.9156 213.885 55.0626 213.771 55.2306C213.657 55.3986 213.6 55.5816 213.6 55.7796C213.6 56.1696 213.714 56.4486 213.942 56.6166C214.176 56.7846 214.479 56.8686 214.851 56.8686C215.307 56.8686 215.7 56.7876 216.03 56.6256C216.366 56.4576 216.693 56.2056 217.011 55.8696V54.3126ZM211.917 50.3076C212.979 49.3356 214.257 48.8496 215.751 48.8496C216.291 48.8496 216.774 48.9396 217.2 49.1196C217.626 49.2936 217.986 49.5396 218.28 49.8576C218.574 50.1696 218.796 50.5446 218.946 50.9826C219.102 51.4206 219.18 51.9006 219.18 52.4226V58.2546H218.172C217.962 58.2546 217.8 58.2246 217.686 58.1646C217.572 58.0986 217.482 57.9696 217.416 57.7776L217.218 57.1116C216.984 57.3216 216.756 57.5076 216.534 57.6696C216.312 57.8256 216.081 57.9576 215.841 58.0656C215.601 58.1736 215.343 58.2546 215.067 58.3086C214.797 58.3686 214.497 58.3986 214.167 58.3986C213.777 58.3986 213.417 58.3476 213.087 58.2456C212.757 58.1376 212.472 57.9786 212.232 57.7686C211.992 57.5586 211.806 57.2976 211.674 56.9856C211.542 56.6736 211.476 56.3106 211.476 55.8966C211.476 55.6626 211.515 55.4316 211.593 55.2036C211.671 54.9696 211.797 54.7476 211.971 54.5376C212.151 54.3276 212.382 54.1296 212.664 53.9436C212.946 53.7576 213.291 53.5956 213.699 53.4576C214.113 53.3196 214.593 53.2086 215.139 53.1246C215.685 53.0346 216.309 52.9806 217.011 52.9626V52.4226C217.011 51.8046 216.879 51.3486 216.615 51.0546C216.351 50.7546 215.97 50.6046 215.472 50.6046C215.112 50.6046 214.812 50.6466 214.572 50.7306C214.338 50.8146 214.131 50.9106 213.951 51.0186C213.771 51.1206 213.606 51.2136 213.456 51.2976C213.312 51.3816 213.15 51.4236 212.97 51.4236C212.814 51.4236 212.682 51.3846 212.574 51.3066C212.466 51.2226 212.379 51.1266 212.313 51.0186L211.917 50.3076ZM227.223 52.5756C227.223 52.2876 227.181 52.0176 227.097 51.7656C227.019 51.5076 226.899 51.2826 226.737 51.0906C226.575 50.8986 226.368 50.7486 226.116 50.6406C225.87 50.5266 225.582 50.4696 225.252 50.4696C224.61 50.4696 224.103 50.6526 223.731 51.0186C223.365 51.3846 223.131 51.9036 223.029 52.5756H227.223ZM222.984 53.9166C223.02 54.3906 223.104 54.8016 223.236 55.1496C223.368 55.4916 223.542 55.7766 223.758 56.0046C223.974 56.2266 224.229 56.3946 224.523 56.5086C224.823 56.6166 225.153 56.6706 225.513 56.6706C225.873 56.6706 226.182 56.6286 226.44 56.5446C226.704 56.4606 226.932 56.3676 227.124 56.2656C227.322 56.1636 227.493 56.0706 227.637 55.9866C227.787 55.9026 227.931 55.8606 228.069 55.8606C228.255 55.8606 228.393 55.9296 228.483 56.0676L229.122 56.8776C228.876 57.1656 228.6 57.4086 228.294 57.6066C227.988 57.7986 227.667 57.9546 227.331 58.0746C227.001 58.1886 226.662 58.2696 226.314 58.3176C225.972 58.3656 225.639 58.3896 225.315 58.3896C224.673 58.3896 224.076 58.2846 223.524 58.0746C222.972 57.8586 222.492 57.5436 222.084 57.1296C221.676 56.7096 221.355 56.1936 221.121 55.5816C220.887 54.9636 220.77 54.2496 220.77 53.4396C220.77 52.8096 220.872 52.2186 221.076 51.6666C221.28 51.1086 221.571 50.6256 221.949 50.2176C222.333 49.8036 222.798 49.4766 223.344 49.2366C223.896 48.9966 224.517 48.8766 225.207 48.8766C225.789 48.8766 226.326 48.9696 226.818 49.1556C227.31 49.3416 227.733 49.6146 228.087 49.9746C228.441 50.3286 228.717 50.7666 228.915 51.2886C229.119 51.8046 229.221 52.3956 229.221 53.0616C229.221 53.3976 229.185 53.6256 229.113 53.7456C229.041 53.8596 228.903 53.9166 228.699 53.9166H222.984ZM231.396 58.2546V50.6946L230.595 50.5686C230.421 50.5326 230.28 50.4726 230.172 50.3886C230.07 50.2986 230.019 50.1726 230.019 50.0106V49.1016H231.396V48.4176C231.396 47.8896 231.474 47.4156 231.63 46.9956C231.792 46.5756 232.02 46.2186 232.314 45.9246C232.614 45.6306 232.977 45.4056 233.403 45.2496C233.829 45.0936 234.309 45.0156 234.843 45.0156C235.269 45.0156 235.665 45.0726 236.031 45.1866L235.986 46.3026C235.98 46.3866 235.956 46.4556 235.914 46.5096C235.872 46.5576 235.815 46.5966 235.743 46.6266C235.677 46.6506 235.599 46.6686 235.509 46.6806C235.419 46.6866 235.323 46.6896 235.221 46.6896C234.957 46.6896 234.72 46.7196 234.51 46.7796C234.306 46.8336 234.132 46.9326 233.988 47.0766C233.844 47.2146 233.733 47.4006 233.655 47.6346C233.583 47.8626 233.547 48.1476 233.547 48.4896V49.1016H235.95V50.6856H233.619V58.2546H231.396ZM242.902 52.5756C242.902 52.2876 242.86 52.0176 242.776 51.7656C242.698 51.5076 242.578 51.2826 242.416 51.0906C242.254 50.8986 242.047 50.7486 241.795 50.6406C241.549 50.5266 241.261 50.4696 240.931 50.4696C240.289 50.4696 239.782 50.6526 239.41 51.0186C239.044 51.3846 238.81 51.9036 238.708 52.5756H242.902ZM238.663 53.9166C238.699 54.3906 238.783 54.8016 238.915 55.1496C239.047 55.4916 239.221 55.7766 239.437 56.0046C239.653 56.2266 239.908 56.3946 240.202 56.5086C240.502 56.6166 240.832 56.6706 241.192 56.6706C241.552 56.6706 241.861 56.6286 242.119 56.5446C242.383 56.4606 242.611 56.3676 242.803 56.2656C243.001 56.1636 243.172 56.0706 243.316 55.9866C243.466 55.9026 243.61 55.8606 243.748 55.8606C243.934 55.8606 244.072 55.9296 244.162 56.0676L244.801 56.8776C244.555 57.1656 244.279 57.4086 243.973 57.6066C243.667 57.7986 243.346 57.9546 243.01 58.0746C242.68 58.1886 242.341 58.2696 241.993 58.3176C241.651 58.3656 241.318 58.3896 240.994 58.3896C240.352 58.3896 239.755 58.2846 239.203 58.0746C238.651 57.8586 238.171 57.5436 237.763 57.1296C237.355 56.7096 237.034 56.1936 236.8 55.5816C236.566 54.9636 236.449 54.2496 236.449 53.4396C236.449 52.8096 236.551 52.2186 236.755 51.6666C236.959 51.1086 237.25 50.6256 237.628 50.2176C238.012 49.8036 238.477 49.4766 239.023 49.2366C239.575 48.9966 240.196 48.8766 240.886 48.8766C241.468 48.8766 242.005 48.9696 242.497 49.1556C242.989 49.3416 243.412 49.6146 243.766 49.9746C244.12 50.3286 244.396 50.7666 244.594 51.2886C244.798 51.8046 244.9 52.3956 244.9 53.0616C244.9 53.3976 244.864 53.6256 244.792 53.7456C244.72 53.8596 244.582 53.9166 244.378 53.9166H238.663ZM251.446 54.3126C250.804 54.3426 250.264 54.3996 249.826 54.4836C249.388 54.5616 249.037 54.6636 248.773 54.7896C248.509 54.9156 248.32 55.0626 248.206 55.2306C248.092 55.3986 248.035 55.5816 248.035 55.7796C248.035 56.1696 248.149 56.4486 248.377 56.6166C248.611 56.7846 248.914 56.8686 249.286 56.8686C249.742 56.8686 250.135 56.7876 250.465 56.6256C250.801 56.4576 251.128 56.2056 251.446 55.8696V54.3126ZM246.352 50.3076C247.414 49.3356 248.692 48.8496 250.186 48.8496C250.726 48.8496 251.209 48.9396 251.635 49.1196C252.061 49.2936 252.421 49.5396 252.715 49.8576C253.009 50.1696 253.231 50.5446 253.381 50.9826C253.537 51.4206 253.615 51.9006 253.615 52.4226V58.2546H252.607C252.397 58.2546 252.235 58.2246 252.121 58.1646C252.007 58.0986 251.917 57.9696 251.851 57.7776L251.653 57.1116C251.419 57.3216 251.191 57.5076 250.969 57.6696C250.747 57.8256 250.516 57.9576 250.276 58.0656C250.036 58.1736 249.778 58.2546 249.502 58.3086C249.232 58.3686 248.932 58.3986 248.602 58.3986C248.212 58.3986 247.852 58.3476 247.522 58.2456C247.192 58.1376 246.907 57.9786 246.667 57.7686C246.427 57.5586 246.241 57.2976 246.109 56.9856C245.977 56.6736 245.911 56.3106 245.911 55.8966C245.911 55.6626 245.95 55.4316 246.028 55.2036C246.106 54.9696 246.232 54.7476 246.406 54.5376C246.586 54.3276 246.817 54.1296 247.099 53.9436C247.381 53.7576 247.726 53.5956 248.134 53.4576C248.548 53.3196 249.028 53.2086 249.574 53.1246C250.12 53.0346 250.744 52.9806 251.446 52.9626V52.4226C251.446 51.8046 251.314 51.3486 251.05 51.0546C250.786 50.7546 250.405 50.6046 249.907 50.6046C249.547 50.6046 249.247 50.6466 249.007 50.7306C248.773 50.8146 248.566 50.9106 248.386 51.0186C248.206 51.1206 248.041 51.2136 247.891 51.2976C247.747 51.3816 247.585 51.4236 247.405 51.4236C247.249 51.4236 247.117 51.3846 247.009 51.3066C246.901 51.2226 246.814 51.1266 246.748 51.0186L246.352 50.3076ZM257.806 50.6226C258.094 50.0706 258.436 49.6386 258.832 49.3266C259.228 49.0086 259.696 48.8496 260.236 48.8496C260.662 48.8496 261.004 48.9426 261.262 49.1286L261.118 50.7936C261.088 50.9016 261.043 50.9796 260.983 51.0276C260.929 51.0696 260.854 51.0906 260.758 51.0906C260.668 51.0906 260.533 51.0756 260.353 51.0456C260.179 51.0156 260.008 51.0006 259.84 51.0006C259.594 51.0006 259.375 51.0366 259.183 51.1086C258.991 51.1806 258.817 51.2856 258.661 51.4236C258.511 51.5556 258.376 51.7176 258.256 51.9096C258.142 52.1016 258.034 52.3206 257.932 52.5666V58.2546H255.709V49.0206H257.014C257.242 49.0206 257.401 49.0626 257.491 49.1466C257.581 49.2246 257.641 49.3686 257.671 49.5786L257.806 50.6226ZM265.693 53.4126C265.969 53.4126 266.209 53.3766 266.413 53.3046C266.617 53.2266 266.785 53.1216 266.917 52.9896C267.055 52.8576 267.157 52.6986 267.223 52.5126C267.295 52.3266 267.331 52.1226 267.331 51.9006C267.331 51.4446 267.193 51.0846 266.917 50.8206C266.647 50.5506 266.239 50.4156 265.693 50.4156C265.147 50.4156 264.736 50.5506 264.46 50.8206C264.19 51.0846 264.055 51.4446 264.055 51.9006C264.055 52.1166 264.088 52.3176 264.154 52.5036C264.226 52.6896 264.328 52.8516 264.46 52.9896C264.598 53.1216 264.769 53.2266 264.973 53.3046C265.183 53.3766 265.423 53.4126 265.693 53.4126ZM268.204 58.6686C268.204 58.4886 268.15 58.3416 268.042 58.2276C267.934 58.1136 267.787 58.0266 267.601 57.9666C267.415 57.9006 267.196 57.8526 266.944 57.8226C266.698 57.7926 266.434 57.7716 266.152 57.7596C265.876 57.7416 265.588 57.7266 265.288 57.7146C264.994 57.7026 264.706 57.6786 264.424 57.6426C264.178 57.7806 263.977 57.9426 263.821 58.1286C263.671 58.3146 263.596 58.5306 263.596 58.7766C263.596 58.9386 263.635 59.0886 263.713 59.2266C263.797 59.3706 263.926 59.4936 264.1 59.5956C264.28 59.6976 264.511 59.7756 264.793 59.8296C265.075 59.8896 265.42 59.9196 265.828 59.9196C266.242 59.9196 266.599 59.8866 266.899 59.8206C267.199 59.7606 267.445 59.6736 267.637 59.5596C267.835 59.4516 267.979 59.3196 268.069 59.1636C268.159 59.0136 268.204 58.8486 268.204 58.6686ZM270.418 49.3356V50.1636C270.418 50.4276 270.259 50.5896 269.941 50.6496L269.113 50.8026C269.239 51.1206 269.302 51.4686 269.302 51.8466C269.302 52.3026 269.209 52.7166 269.023 53.0886C268.843 53.4546 268.591 53.7666 268.267 54.0246C267.943 54.2826 267.559 54.4836 267.115 54.6276C266.677 54.7656 266.203 54.8346 265.693 54.8346C265.513 54.8346 265.339 54.8256 265.171 54.8076C265.003 54.7896 264.838 54.7656 264.676 54.7356C264.388 54.9096 264.244 55.1046 264.244 55.3206C264.244 55.5066 264.328 55.6446 264.496 55.7346C264.67 55.8186 264.898 55.8786 265.18 55.9146C265.462 55.9506 265.783 55.9746 266.143 55.9866C266.503 55.9926 266.872 56.0106 267.25 56.0406C267.628 56.0706 267.997 56.1246 268.357 56.2026C268.717 56.2746 269.038 56.3916 269.32 56.5536C269.602 56.7156 269.827 56.9376 269.995 57.2196C270.169 57.4956 270.256 57.8526 270.256 58.2906C270.256 58.6986 270.154 59.0946 269.95 59.4786C269.752 59.8626 269.461 60.2046 269.077 60.5046C268.699 60.8046 268.231 61.0446 267.673 61.2246C267.121 61.4106 266.491 61.5036 265.783 61.5036C265.087 61.5036 264.481 61.4346 263.965 61.2966C263.449 61.1646 263.02 60.9846 262.678 60.7566C262.336 60.5346 262.081 60.2766 261.913 59.9826C261.745 59.6886 261.661 59.3826 261.661 59.0646C261.661 58.6326 261.79 58.2726 262.048 57.9846C262.312 57.6906 262.672 57.4566 263.128 57.2826C262.882 57.1566 262.687 56.9886 262.543 56.7786C262.399 56.5686 262.327 56.2926 262.327 55.9506C262.327 55.8126 262.351 55.6716 262.399 55.5276C262.453 55.3776 262.528 55.2306 262.624 55.0866C262.726 54.9426 262.852 54.8076 263.002 54.6816C263.152 54.5496 263.329 54.4326 263.533 54.3306C263.065 54.0786 262.696 53.7426 262.426 53.3226C262.162 52.9026 262.03 52.4106 262.03 51.8466C262.03 51.3906 262.12 50.9796 262.3 50.6136C262.486 50.2416 262.741 49.9266 263.065 49.6686C263.395 49.4046 263.782 49.2036 264.226 49.0656C264.676 48.9276 265.165 48.8586 265.693 48.8586C266.089 48.8586 266.461 48.9006 266.809 48.9846C267.157 49.0626 267.475 49.1796 267.763 49.3356H270.418ZM280.153 49.0206L276.49 58.2546H274.474L270.811 49.0206H272.647C272.815 49.0206 272.953 49.0596 273.061 49.1376C273.175 49.2156 273.25 49.3146 273.286 49.4346L275.068 54.3666C275.164 54.6546 275.248 54.9366 275.32 55.2126C275.392 55.4886 275.455 55.7646 275.509 56.0406C275.569 55.7646 275.635 55.4886 275.707 55.2126C275.779 54.9366 275.866 54.6546 275.968 54.3666L277.786 49.4346C277.828 49.3146 277.903 49.2156 278.011 49.1376C278.119 49.0596 278.248 49.0206 278.398 49.0206H280.153Z" fill="black"/>
<line x1="94.9402" y1="90.6425" x2="603.819" y2="90.6425" stroke="black" stroke-opacity="0.2"/>
<rect x="1.51904" y="1.51904" width="87.3449" height="87.3449" rx="8" fill="#5EC2B7"/>
<path d="M52.918 53.968V58H37.978V53.968H43.018V40.738C43.018 40.402 43.024 40.066 43.036 39.73C43.048 39.382 43.066 39.034 43.09 38.686L40.102 41.17C39.838 41.374 39.574 41.5 39.31 41.548C39.058 41.584 38.818 41.584 38.59 41.548C38.362 41.5 38.158 41.422 37.978 41.314C37.798 41.194 37.666 41.074 37.582 40.954L35.818 38.614L43.99 31.756H48.598V53.968H52.918Z" fill="black"/>
<rect x="609.136" y="1.51904" width="87.3449" height="87.3449" rx="8" fill="#C4C4C4"/>
</svg>
