<svg width="698" height="92" viewBox="0 0 698 92" fill="none" xmlns="http://www.w3.org/2000/svg">
<rect width="698" height="91.1425" fill="white"/>
<line x1="104.054" y1="60.2617" x2="326.594" y2="60.2617" stroke="black" stroke-opacity="0.2"/>
<line x1="104.054" y1="31.3999" x2="463.308" y2="31.3999" stroke="black" stroke-opacity="0.2"/>
<line x1="94.9402" y1="90.6425" x2="603.819" y2="90.6425" stroke="black" stroke-opacity="0.2"/>
<rect x="1.51904" y="1.51904" width="87.3449" height="87.3449" rx="8" fill="#5EC2B7"/>
<path d="M52.918 53.968V58H37.978V53.968H43.018V40.738C43.018 40.402 43.024 40.066 43.036 39.73C43.048 39.382 43.066 39.034 43.09 38.686L40.102 41.17C39.838 41.374 39.574 41.5 39.31 41.548C39.058 41.584 38.818 41.584 38.59 41.548C38.362 41.5 38.158 41.422 37.978 41.314C37.798 41.194 37.666 41.074 37.582 40.954L35.818 38.614L43.99 31.756H48.598V53.968H52.918Z" fill="black"/>
<rect x="609.136" y="1.51904" width="87.3449" height="87.3449" rx="8" fill="#C4C4C4"/>
</svg>
